EB Garamond 12-Regular Italic.ufo
<glyph name="comma" format="1">
  <advance width="250"/>
  <unicode hex="002C"/>
  <note>
    comma
  </note>
  <outline>
    <contour>
      <point x="45" y="-129"/>
      <point x="141" y="-50"/>
      <point x="141" y="50" type="curve" smooth="yes"/>
      <point x="141" y="97"/>
      <point x="111" y="120"/>
      <point x="75" y="120" type="curve" smooth="yes"/>
      <point x="48" y="120"/>
      <point x="20" y="103"/>
      <point x="20" y="80" type="curve" smooth="yes"/>
      <point x="20" y="60"/>
      <point x="35" y="52"/>
      <point x="50" y="44" type="curve" smooth="yes"/>
      <point x="65" y="37"/>
      <point x="82" y="28"/>
      <point x="82" y="6" type="curve" smooth="yes"/>
      <point x="82" y="-35"/>
      <point x="49" y="-75"/>
      <point x="-9" y="-106" type="curve" smooth="yes"/>
      <point x="-24" y="-114"/>
      <point x="-34" y="-117"/>
      <point x="-34" y="-123" type="curve" smooth="yes"/>
      <point x="-34" y="-130"/>
      <point x="-26" y="-129"/>
      <point x="-16" y="-129" type="curve" smooth="yes"/>
    </contour>
  </outline>
</glyph>
<glyph name="period" format="1">
  <advance width="215"/>
  <unicode hex="002E"/>
  <note>
    period
  </note>
  <outline>
    <contour>
      <point x="85" y="-14"/>
      <point x="114" y="15"/>
      <point x="114" y="51" type="curve" smooth="yes"/>
      <point x="114" y="77"/>
      <point x="95" y="101"/>
      <point x="69" y="101" type="curve" smooth="yes"/>
      <point x="33" y="101"/>
      <point x="4" y="72"/>
      <point x="4" y="36" type="curve" smooth="yes"/>
      <point x="4" y="10"/>
      <point x="23" y="-14"/>
      <point x="49" y="-14" type="curve" smooth="yes"/>
    </contour>
  </outline>
</glyph>
<glyph name="sterling" format="1">
  <advance width="499"/>
  <unicode hex="00A3"/>
  <note>
    sterling
  </note>
  <outline>
    <contour>
      <point x="377" y="313" type="line"/>
      <point x="392" y="313"/>
      <point x="401" y="324"/>
      <point x="408" y="337" type="curve"/>
      <point x="411" y="344"/>
      <point x="402" y="351"/>
      <point x="395" y="351" type="curve"/>
      <point x="99" y="331" type="line"/>
      <point x="86" y="330"/>
      <point x="75" y="314"/>
      <point x="75" y="305" type="curve" smooth="yes"/>
      <point x="75" y="299"/>
      <point x="82" y="293"/>
      <point x="89" y="293" type="curve"/>
    </contour>
    <component base="L.script"/>
  </outline>
</glyph>
<glyph name="Eth" format="1">
  <advance width="752"/>
  <unicode hex="00D0"/>
  <note>
    Eth
  </note>
  <outline>
    <contour>
      <point x="431" y="317" type="line" smooth="yes"/>
      <point x="445" y="317"/>
      <point x="456" y="326"/>
      <point x="466" y="339" type="curve"/>
      <point x="471" y="346"/>
      <point x="466" y="353"/>
      <point x="459" y="353" type="curve" smooth="yes"/>
      <point x="123" y="353" type="line" smooth="yes"/>
      <point x="112" y="353"/>
      <point x="98" y="344"/>
      <point x="95" y="335" type="curve" smooth="yes"/>
      <point x="93" y="329"/>
      <point x="95" y="317"/>
      <point x="103" y="317" type="curve" smooth="yes"/>
    </contour>
    <component base="D"/>
  </outline>
</glyph>
<glyph name="hbar" format="1">
  <advance width="488"/>
  <unicode hex="0127"/>
  <note>
    hbar
  </note>
  <outline>
    <contour>
      <point x="352" y="515" type="line" smooth="yes"/>
      <point x="367" y="515"/>
      <point x="376" y="523"/>
      <point x="383" y="536" type="curve"/>
      <point x="383" y="537"/>
      <point x="384" y="538"/>
      <point x="384" y="539" type="curve" smooth="yes"/>
      <point x="384" y="544"/>
      <point x="376" y="549"/>
      <point x="370" y="549" type="curve" smooth="yes"/>
      <point x="135" y="549" type="line" smooth="yes"/>
      <point x="123" y="549"/>
      <point x="111" y="541"/>
      <point x="111" y="532" type="curve" smooth="yes"/>
      <point x="111" y="526"/>
      <point x="116" y="515"/>
      <point x="125" y="515" type="curve" smooth="yes"/>
    </contour>
    <component base="h"/>
  </outline>
</glyph>
<glyph name="Tbar" format="1">
  <advance width="635"/>
  <unicode hex="0166"/>
  <note>
    Tbar
  </note>
  <outline>
    <contour>
      <point x="498" y="332" type="line" smooth="yes"/>
      <point x="508" y="332"/>
      <point x="536" y="343"/>
      <point x="536" y="359" type="curve" smooth="yes"/>
      <point x="536" y="364"/>
      <point x="531" y="368"/>
      <point x="526" y="368" type="curve" smooth="yes"/>
      <point x="222" y="368" type="line" smooth="yes"/>
      <point x="209" y="368"/>
      <point x="193" y="358"/>
      <point x="193" y="344" type="curve" smooth="yes"/>
      <point x="193" y="338"/>
      <point x="195" y="332"/>
      <point x="201" y="332" type="curve" smooth="yes"/>
    </contour>
    <component base="T"/>
  </outline>
</glyph>
<glyph name="uni0197" format="1">
  <advance width="362"/>
  <unicode hex="0197"/>
  <note>
    uni0197
  </note>
  <outline>
    <contour>
      <point x="325" y="317" type="line" smooth="yes"/>
      <point x="339" y="317"/>
      <point x="353" y="329"/>
      <point x="353" y="342" type="curve" smooth="yes"/>
      <point x="353" y="348"/>
      <point x="348" y="353"/>
      <point x="342" y="353" type="curve" smooth="yes"/>
      <point x="123" y="353" type="line" smooth="yes"/>
      <point x="111" y="353"/>
      <point x="96" y="341"/>
      <point x="96" y="332" type="curve" smooth="yes"/>
      <point x="96" y="323"/>
      <point x="100" y="317"/>
      <point x="109" y="317" type="curve" smooth="yes"/>
    </contour>
    <component base="I"/>
  </outline>
</glyph>
<glyph name="uni019B" format="1">
  <advance width="495"/>
  <unicode hex="019B"/>
  <note>
    uni019B
  </note>
  <outline>
    <contour>
      <point x="343" y="501" type="line"/>
      <point x="362" y="512" type="line"/>
      <point x="492" y="571" type="line"/>
      <point x="508" y="579"/>
      <point x="510" y="594"/>
      <point x="512" y="612" type="curve" smooth="yes"/>
      <point x="513" y="622"/>
      <point x="495" y="618"/>
      <point x="487" y="615" type="curve"/>
      <point x="350" y="553" type="line"/>
      <point x="332" y="543" type="line"/>
      <point x="191" y="478" type="line" smooth="yes"/>
      <point x="183" y="474"/>
      <point x="183" y="453"/>
      <point x="181" y="444" type="curve" smooth="yes"/>
      <point x="180" y="439"/>
      <point x="187" y="431"/>
      <point x="195" y="435" type="curve" smooth="yes"/>
    </contour>
    <component base="lambda"/>
  </outline>
</glyph>
<glyph name="uni01E4" format="1">
  <advance width="729"/>
  <unicode hex="01E4"/>
  <note>
    uni01E4
  </note>
  <outline>
    <contour>
      <point x="625" y="134" type="line"/>
      <point x="640" y="134"/>
      <point x="649" y="143"/>
      <point x="656" y="156" type="curve"/>
      <point x="656" y="157"/>
      <point x="657" y="158"/>
      <point x="657" y="159" type="curve" smooth="yes"/>
      <point x="657" y="165"/>
      <point x="649" y="170"/>
      <point x="643" y="170" type="curve"/>
      <point x="353" y="170" type="line"/>
      <point x="341" y="170"/>
      <point x="329" y="161"/>
      <point x="329" y="152" type="curve" smooth="yes"/>
      <point x="329" y="146"/>
      <point x="334" y="134"/>
      <point x="343" y="134" type="curve"/>
    </contour>
    <component base="G"/>
  </outline>
</glyph>
<glyph name="uni023A" format="1">
  <advance width="658"/>
  <unicode hex="023A"/>
  <note>
    uni023A
  </note>
  <outline>
    <contour>
      <point x="92" y="-92"/>
      <point x="109" y="-90"/>
      <point x="118" y="-74" type="curve"/>
      <point x="782" y="700" type="line"/>
      <point x="782" y="701"/>
      <point x="783" y="703"/>
      <point x="783" y="704" type="curve" smooth="yes"/>
      <point x="783" y="711"/>
      <point x="776" y="717"/>
      <point x="769" y="717" type="curve" smooth="yes"/>
      <point x="750" y="717"/>
      <point x="724" y="717"/>
      <point x="715" y="700" type="curve"/>
      <point x="50" y="-74" type="line"/>
      <point x="46" y="-80"/>
      <point x="49" y="-77"/>
      <point x="49" y="-77" type="curve"/>
      <point x="49" y="-84"/>
      <point x="56" y="-92"/>
      <point x="73" y="-92" type="curve" smooth="yes"/>
    </contour>
    <component base="A"/>
  </outline>
</glyph>
<glyph name="uni023B" format="1">
  <advance width="623"/>
  <unicode hex="023B"/>
  <note>
    uni023B
  </note>
  <outline>
    <contour>
      <point x="125" y="-146"/>
      <point x="141" y="-141"/>
      <point x="147" y="-124" type="curve"/>
      <point x="651" y="763" type="line"/>
      <point x="651" y="764"/>
      <point x="652" y="766"/>
      <point x="652" y="767" type="curve" smooth="yes"/>
      <point x="650" y="774"/>
      <point x="642" y="778"/>
      <point x="635" y="777" type="curve" smooth="yes"/>
      <point x="617" y="773"/>
      <point x="591" y="768"/>
      <point x="586" y="750" type="curve"/>
      <point x="81" y="-137" type="line"/>
      <point x="78" y="-143"/>
      <point x="80" y="-140"/>
      <point x="80" y="-140" type="curve"/>
      <point x="81" y="-147"/>
      <point x="90" y="-153"/>
      <point x="107" y="-150" type="curve" smooth="yes"/>
    </contour>
    <component base="C"/>
  </outline>
</glyph>
<glyph name="uni023D" format="1">
  <advance width="583"/>
  <unicode hex="023D"/>
  <note>
    uni023D
  </note>
  <outline>
    <contour>
      <point x="405" y="317" type="line"/>
      <point x="420" y="317"/>
      <point x="430" y="326"/>
      <point x="440" y="339" type="curve"/>
      <point x="440" y="340"/>
      <point x="441" y="341"/>
      <point x="441" y="342" type="curve" smooth="yes"/>
      <point x="441" y="348"/>
      <point x="435" y="353"/>
      <point x="429" y="353" type="curve"/>
      <point x="122" y="353" type="line"/>
      <point x="110" y="353"/>
      <point x="97" y="344"/>
      <point x="95" y="335" type="curve" smooth="yes"/>
      <point x="94" y="329"/>
      <point x="97" y="317"/>
      <point x="106" y="317" type="curve"/>
    </contour>
    <component base="L"/>
  </outline>
</glyph>
<glyph name="uni023E" format="1">
  <advance width="622"/>
  <unicode hex="023E"/>
  <note>
    uni023E
  </note>
  <outline>
    <contour>
      <point x="12" y="-92"/>
      <point x="29" y="-90"/>
      <point x="38" y="-74" type="curve"/>
      <point x="702" y="700" type="line"/>
      <point x="702" y="701"/>
      <point x="703" y="703"/>
      <point x="703" y="704" type="curve" smooth="yes"/>
      <point x="703" y="711"/>
      <point x="696" y="717"/>
      <point x="689" y="717" type="curve" smooth="yes"/>
      <point x="670" y="717"/>
      <point x="644" y="717"/>
      <point x="635" y="700" type="curve"/>
      <point x="-30" y="-74" type="line"/>
      <point x="-34" y="-80"/>
      <point x="-31" y="-77"/>
      <point x="-31" y="-77" type="curve"/>
      <point x="-31" y="-84"/>
      <point x="-24" y="-92"/>
      <point x="-7" y="-92" type="curve" smooth="yes"/>
    </contour>
    <component base="T"/>
  </outline>
</glyph>
<glyph name="uni0244" format="1">
  <advance width="700"/>
  <unicode hex="0244"/>
  <note>
    uni0244
  </note>
  <outline>
    <contour>
      <point x="667" y="268" type="line"/>
      <point x="682" y="268"/>
      <point x="691" y="277"/>
      <point x="698" y="290" type="curve"/>
      <point x="698" y="291"/>
      <point x="699" y="292"/>
      <point x="699" y="293" type="curve" smooth="yes"/>
      <point x="699" y="299"/>
      <point x="691" y="304"/>
      <point x="685" y="304" type="curve"/>
      <point x="86" y="304" type="line"/>
      <point x="74" y="304"/>
      <point x="62" y="295"/>
      <point x="62" y="286" type="curve" smooth="yes"/>
      <point x="62" y="280"/>
      <point x="67" y="268"/>
      <point x="76" y="268" type="curve"/>
    </contour>
    <component base="U"/>
  </outline>
</glyph>
<glyph name="uni0246" format="1">
  <advance width="576"/>
  <unicode hex="0246"/>
  <note>
    uni0246
  </note>
  <outline>
    <contour>
      <point x="123" y="-156"/>
      <point x="139" y="-149"/>
      <point x="145" y="-131" type="curve"/>
      <point x="618" y="773" type="line"/>
      <point x="617" y="774"/>
      <point x="618" y="776"/>
      <point x="618" y="777" type="curve" smooth="yes"/>
      <point x="618" y="783"/>
      <point x="608" y="788"/>
      <point x="601" y="786" type="curve" smooth="yes"/>
      <point x="583" y="781"/>
      <point x="557" y="776"/>
      <point x="552" y="757" type="curve"/>
      <point x="78" y="-146" type="line"/>
      <point x="76" y="-153"/>
      <point x="78" y="-149"/>
      <point x="78" y="-149" type="curve"/>
      <point x="80" y="-156"/>
      <point x="88" y="-162"/>
      <point x="105" y="-159" type="curve" smooth="yes"/>
    </contour>
    <component base="E"/>
  </outline>
</glyph>
<glyph name="uni0247" format="1">
  <advance width="336"/>
  <unicode hex="0247"/>
  <note>
    uni0247
  </note>
  <outline>
    <contour>
      <point x="22" y="-65"/>
      <point x="35" y="-64"/>
      <point x="41" y="-52" type="curve" smooth="yes"/>
      <point x="315" y="448" type="line"/>
      <point x="318" y="454"/>
      <point x="323" y="464"/>
      <point x="323" y="468" type="curve" smooth="yes"/>
      <point x="323" y="473"/>
      <point x="320" y="477"/>
      <point x="315" y="477" type="curve" smooth="yes"/>
      <point x="298" y="477"/>
      <point x="287" y="472"/>
      <point x="279" y="458" type="curve" smooth="yes"/>
      <point x="1" y="-47" type="line" smooth="yes"/>
      <point x="-1" y="-51"/>
      <point x="-3" y="-56"/>
      <point x="-3" y="-57" type="curve" smooth="yes"/>
      <point x="-3" y="-62"/>
      <point x="0" y="-65"/>
      <point x="8" y="-65" type="curve" smooth="yes"/>
    </contour>
    <component base="e"/>
  </outline>
</glyph>
<glyph name="uni0248" format="1">
  <advance width="293"/>
  <unicode hex="0248"/>
  <note>
    uni0248
  </note>
  <outline>
    <contour>
      <point x="279" y="296" type="line"/>
      <point x="294" y="296"/>
      <point x="303" y="305"/>
      <point x="310" y="318" type="curve"/>
      <point x="310" y="319"/>
      <point x="311" y="320"/>
      <point x="311" y="321" type="curve" smooth="yes"/>
      <point x="311" y="327"/>
      <point x="303" y="332"/>
      <point x="297" y="332" type="curve"/>
      <point x="76" y="332" type="line"/>
      <point x="64" y="332"/>
      <point x="52" y="323"/>
      <point x="52" y="314" type="curve" smooth="yes"/>
      <point x="52" y="308"/>
      <point x="57" y="296"/>
      <point x="66" y="296" type="curve"/>
    </contour>
    <component base="J"/>
  </outline>
</glyph>
<glyph name="uni024B" format="1">
  <advance width="773"/>
  <unicode hex="024B"/>
  <note>
    uni024B
  </note>
  <outline>
    <contour>
      <point x="584" y="-288"/>
      <point x="647" y="-258"/>
      <point x="647" y="-195" type="curve" smooth="yes"/>
      <point x="647" y="-182"/>
      <point x="646" y="-169"/>
      <point x="638" y="-169" type="curve" smooth="yes"/>
      <point x="617" y="-169"/>
      <point x="575" y="-201"/>
      <point x="575" y="-219" type="curve" smooth="yes"/>
      <point x="575" y="-238"/>
      <point x="561" y="-260"/>
      <point x="525" y="-260" type="curve" smooth="yes"/>
      <point x="481" y="-260"/>
      <point x="457" y="-210"/>
      <point x="457" y="-46" type="curve" smooth="yes"/>
      <point x="457" y="295" type="line" smooth="yes"/>
      <point x="457" y="331"/>
      <point x="462" y="379"/>
      <point x="469" y="411" type="curve"/>
      <point x="469" y="416"/>
      <point x="459" y="421"/>
      <point x="453" y="421" type="curve" smooth="yes"/>
      <point x="450" y="421"/>
      <point x="447" y="418"/>
      <point x="446" y="417" type="curve"/>
      <point x="439" y="402"/>
      <point x="434" y="392"/>
      <point x="420" y="392" type="curve" smooth="yes"/>
      <point x="415" y="392"/>
      <point x="360" y="414"/>
      <point x="292" y="414" type="curve" smooth="yes"/>
      <point x="145" y="414"/>
      <point x="45" y="319"/>
      <point x="45" y="178" type="curve" smooth="yes"/>
      <point x="45" y="54"/>
      <point x="141" y="-14"/>
      <point x="245" y="-14" type="curve" smooth="yes"/>
      <point x="308" y="-14"/>
      <point x="355" y="5"/>
      <point x="372" y="20" type="curve"/>
      <point x="375" y="23"/>
      <point x="378" y="25"/>
      <point x="381" y="25" type="curve" smooth="yes"/>
      <point x="385" y="25"/>
      <point x="387" y="18"/>
      <point x="387" y="-5" type="curve" smooth="yes"/>
      <point x="387" y="-103" type="line" smooth="yes"/>
      <point x="387" y="-211"/>
      <point x="427" y="-288"/>
      <point x="505" y="-288" type="curve" smooth="yes"/>
    </contour>
    <contour>
      <point x="222" y="24"/>
      <point x="127" y="72"/>
      <point x="127" y="205" type="curve" smooth="yes"/>
      <point x="127" y="320"/>
      <point x="195" y="382"/>
      <point x="267" y="382" type="curve" smooth="yes"/>
      <point x="333" y="382"/>
      <point x="385" y="335"/>
      <point x="387" y="275" type="curve" smooth="yes"/>
      <point x="388" y="250"/>
      <point x="388" y="207"/>
      <point x="388" y="171" type="curve" smooth="yes"/>
      <point x="388" y="124"/>
      <point x="388" y="61"/>
      <point x="368" y="47" type="curve"/>
      <point x="343" y="28"/>
      <point x="316" y="24"/>
      <point x="282" y="24" type="curve" smooth="yes"/>
    </contour>
  </outline>
</glyph>
<glyph name="uni024F" format="1">
  <advance width="438"/>
  <unicode hex="024F"/>
  <note>
    uni024F
  </note>
  <outline>
    <contour>
      <point x="420" y="187" type="line"/>
      <point x="435" y="187"/>
      <point x="444" y="195"/>
      <point x="451" y="208" type="curve"/>
      <point x="451" y="209"/>
      <point x="452" y="210"/>
      <point x="452" y="211" type="curve" smooth="yes"/>
      <point x="452" y="216"/>
      <point x="444" y="221"/>
      <point x="438" y="221" type="curve"/>
      <point x="76" y="221" type="line"/>
      <point x="64" y="221"/>
      <point x="52" y="213"/>
      <point x="52" y="204" type="curve" smooth="yes"/>
      <point x="52" y="198"/>
      <point x="57" y="187"/>
      <point x="66" y="187" type="curve"/>
    </contour>
    <component base="y" xOffset="21"/>
  </outline>
</glyph>
<glyph name="uni02D1" format="1">
  <advance width="200"/>
  <unicode hex="02D1"/>
  <note>
    uni02D1
  </note>
  <outline>
    <contour>
      <point x="115" y="250" type="line"/>
      <point x="228" y="370" type="line"/>
      <point x="78" y="370" type="line"/>
    </contour>
  </outline>
</glyph>
<glyph name="uni0302" format="1">
  <advance width="0"/>
  <unicode hex="0302"/>
  <note>
    uni0302
  </note>
  <outline>
    <component base="circumflex" xOffset="-124" yOffset="18"/>
    <contour>
      <point x="218" y="605" type="move" name="top"/>
    </contour>
    <contour>
      <point x="162" y="635" type="move" name="topstack"/>
    </contour>
  </outline>
</glyph>
<glyph name="uni0308" format="1">
  <advance width="0"/>
  <unicode hex="0308"/>
  <note>
    uni0308
  </note>
  <outline>
    <contour>
      <point x="211" y="494"/>
      <point x="236" y="521"/>
      <point x="236" y="551" type="curve" smooth="yes"/>
      <point x="236" y="572"/>
      <point x="223" y="594"/>
      <point x="202" y="594" type="curve" smooth="yes"/>
      <point x="170" y="594"/>
      <point x="146" y="565"/>
      <point x="146" y="533" type="curve" smooth="yes"/>
      <point x="146" y="513"/>
      <point x="161" y="494"/>
      <point x="181" y="494" type="curve" smooth="yes"/>
    </contour>
    <contour>
      <point x="40" y="494"/>
      <point x="65" y="521"/>
      <point x="65" y="551" type="curve" smooth="yes"/>
      <point x="65" y="572"/>
      <point x="52" y="594"/>
      <point x="31" y="594" type="curve" smooth="yes"/>
      <point x="-1" y="594"/>
      <point x="-25" y="565"/>
      <point x="-25" y="533" type="curve" smooth="yes"/>
      <point x="-25" y="513"/>
      <point x="-10" y="494"/>
      <point x="10" y="494" type="curve" smooth="yes"/>
    </contour>
    <contour>
      <point x="72" y="440" type="move" name="_top"/>
    </contour>
  </outline>
</glyph>
<glyph name="uni030A" format="1">
  <advance width="0"/>
  <unicode hex="030A"/>
  <note>
    uni030A
  </note>
  <outline>
    <contour>
      <point x="132" y="493"/>
      <point x="199" y="535"/>
      <point x="199" y="605" type="curve" smooth="yes"/>
      <point x="199" y="637"/>
      <point x="176" y="660"/>
      <point x="143" y="660" type="curve" smooth="yes"/>
      <point x="97" y="660"/>
      <point x="33" y="610"/>
      <point x="33" y="551" type="curve" smooth="yes"/>
      <point x="33" y="518"/>
      <point x="54" y="493"/>
      <point x="87" y="493" type="curve" smooth="yes"/>
    </contour>
    <contour>
      <point x="82" y="521"/>
      <point x="70" y="538"/>
      <point x="70" y="560" type="curve" smooth="yes"/>
      <point x="70" y="598"/>
      <point x="97" y="632"/>
      <point x="126" y="632" type="curve" smooth="yes"/>
      <point x="147" y="632"/>
      <point x="162" y="614"/>
      <point x="162" y="592" type="curve" smooth="yes"/>
      <point x="162" y="556"/>
      <point x="129" y="521"/>
      <point x="102" y="521" type="curve" smooth="yes"/>
    </contour>
    <contour>
      <point x="75" y="440" type="move" name="_top"/>
    </contour>
  </outline>
</glyph>
<glyph name="uni032C" format="1">
  <advance width="0"/>
  <unicode hex="032C"/>
  <note>
    uni032C
  </note>
  <outline>
    <component base="uni030C" xOffset="-218" yOffset="-703"/>
    <contour>
      <point x="-80" y="-30" type="move" name="_bottom"/>
    </contour>
  </outline>
</glyph>
<glyph name="uni0344" format="1">
  <advance width="0"/>
  <unicode hex="0344"/>
  <note>
    uni0344
  </note>
  <outline>
    <component base="uni1FEE" xOffset="-164"/>
    <contour>
      <point x="91" y="485" type="move" name="_top"/>
    </contour>
  </outline>
</glyph>
<glyph name="uni0345" format="1">
  <advance width="0"/>
  <unicode hex="0345"/>
  <note>
    uni0345
  </note>
  <outline>
    <contour>
      <point x="-84" y="-218"/>
      <point x="-49" y="-187"/>
      <point x="-49" y="-168" type="curve" smooth="yes"/>
      <point x="-49" y="-160"/>
      <point x="-52" y="-160"/>
      <point x="-57" y="-160" type="curve" smooth="yes"/>
      <point x="-62" y="-160"/>
      <point x="-65" y="-161"/>
      <point x="-69" y="-163" type="curve" smooth="yes"/>
      <point x="-75" y="-165"/>
      <point x="-81" y="-168"/>
      <point x="-92" y="-168" type="curve" smooth="yes"/>
      <point x="-99" y="-168"/>
      <point x="-103" y="-160"/>
      <point x="-103" y="-150" type="curve" smooth="yes"/>
      <point x="-103" y="-131"/>
      <point x="-94" y="-103"/>
      <point x="-80" y="-79" type="curve" smooth="yes"/>
      <point x="-73" y="-66"/>
      <point x="-95" y="-62"/>
      <point x="-114" y="-62" type="curve" smooth="yes"/>
      <point x="-150" y="-62"/>
      <point x="-177" y="-133"/>
      <point x="-177" y="-177" type="curve" smooth="yes"/>
      <point x="-177" y="-208"/>
      <point x="-157" y="-218"/>
      <point x="-131" y="-218" type="curve" smooth="yes"/>
    </contour>
    <contour>
      <point x="-95" y="-30" type="move" name="_bottomgreek"/>
    </contour>
  </outline>
</glyph>
<glyph name="tonos" format="1">
  <advance width="200"/>
  <unicode hex="0384"/>
  <note>
    tonos
  </note>
  <outline>
    <contour>
      <point x="157" y="479"/>
      <point x="165" y="487"/>
      <point x="172" y="494" type="curve"/>
      <point x="198" y="523"/>
      <point x="282" y="626"/>
      <point x="282" y="631" type="curve" smooth="yes"/>
      <point x="282" y="646"/>
      <point x="253" y="668"/>
      <point x="243" y="668" type="curve" smooth="yes"/>
      <point x="233" y="668"/>
      <point x="225" y="656"/>
      <point x="218" y="643" type="curve" smooth="yes"/>
      <point x="201" y="612"/>
      <point x="154" y="527"/>
      <point x="143" y="499" type="curve" smooth="yes"/>
      <point x="141" y="494"/>
      <point x="138" y="479"/>
      <point x="149" y="479" type="curve" smooth="yes"/>
    </contour>
    <contour>
      <point x="139" y="460" type="move" name="_topgreek"/>
    </contour>
  </outline>
</glyph>
<glyph name="Epsilon" format="1">
  <advance width="576"/>
  <unicode hex="0395"/>
  <note>
    Epsilon
  </note>
  <outline>
    <component base="E"/>
    <contour>
      <point x="255" y="-30" type="move" name="bottomgreek"/>
    </contour>
    <contour>
      <point x="-6" y="470" type="move" name="topgreek"/>
    </contour>
  </outline>
</glyph>
<glyph name="omicron" format="1">
  <advance width="352"/>
  <unicode hex="03BF"/>
  <note>
    omicron
  </note>
  <outline>
    <contour>
      <point x="245" y="-14"/>
      <point x="332" y="176"/>
      <point x="332" y="296" type="curve" smooth="yes"/>
      <point x="332" y="350"/>
      <point x="302" y="414"/>
      <point x="243" y="414" type="curve" smooth="yes"/>
      <point x="121" y="414"/>
      <point x="17" y="224"/>
      <point x="17" y="99" type="curve" smooth="yes"/>
      <point x="17" y="44"/>
      <point x="65" y="-14"/>
      <point x="106" y="-14" type="curve" smooth="yes"/>
    </contour>
    <contour>
      <point x="76" y="62"/>
      <point x="53" y="95"/>
      <point x="52" y="124" type="curve" smooth="yes"/>
      <point x="51" y="204"/>
      <point x="142" y="341"/>
      <point x="245" y="341" type="curve" smooth="yes"/>
      <point x="277" y="341"/>
      <point x="301" y="316"/>
      <point x="302" y="287" type="curve" smooth="yes"/>
      <point x="306" y="209"/>
      <point x="189" y="62"/>
      <point x="106" y="62" type="curve" smooth="yes"/>
    </contour>
    <contour>
      <point x="261" y="440" type="move" name="topgreek"/>
    </contour>
  </outline>
</glyph>
<glyph name="uni0429" format="1">
  <advance width="1017"/>
  <unicode hex="0429"/>
  <note>
    uni0429
  </note>
  <outline>
    <contour>
      <point x="820" y="-204"/>
      <point x="829" y="-189"/>
      <point x="836" y="-172" type="curve" smooth="yes"/>
      <point x="870" y="-90"/>
      <point x="921" y="15"/>
      <point x="921" y="24" type="curve" smooth="yes"/>
      <point x="921" y="36"/>
      <point x="914" y="43"/>
      <point x="902" y="43" type="curve" smooth="yes"/>
      <point x="859" y="43"/>
      <point x="831" y="57"/>
      <point x="844" y="100" type="curve" smooth="yes"/>
      <point x="982" y="552" type="line" smooth="yes"/>
      <point x="996" y="599"/>
      <point x="1029" y="617"/>
      <point x="1078" y="626" type="curve" smooth="yes"/>
      <point x="1101" y="630"/>
      <point x="1114" y="635"/>
      <point x="1114" y="644" type="curve" smooth="yes"/>
      <point x="1114" y="652"/>
      <point x="1106" y="655"/>
      <point x="1090" y="655" type="curve" smooth="yes"/>
      <point x="1040" y="655"/>
      <point x="1017" y="650"/>
      <point x="970" y="650" type="curve" smooth="yes"/>
      <point x="928" y="650"/>
      <point x="912" y="655"/>
      <point x="862" y="655" type="curve" smooth="yes"/>
      <point x="846" y="655"/>
      <point x="832" y="652"/>
      <point x="832" y="644" type="curve" smooth="yes"/>
      <point x="832" y="635"/>
      <point x="837" y="630"/>
      <point x="857" y="626" type="curve" smooth="yes"/>
      <point x="901" y="617"/>
      <point x="922" y="599"/>
      <point x="908" y="552" type="curve" smooth="yes"/>
      <point x="768" y="88" type="line" smooth="yes"/>
      <point x="754" y="41"/>
      <point x="730" y="28"/>
      <point x="680" y="28" type="curve" smooth="yes"/>
      <point x="556" y="28" type="line" smooth="yes"/>
      <point x="511" y="28"/>
      <point x="501" y="41"/>
      <point x="515" y="88" type="curve" smooth="yes"/>
      <point x="655" y="552" type="line" smooth="yes"/>
      <point x="669" y="599"/>
      <point x="702" y="617"/>
      <point x="751" y="626" type="curve" smooth="yes"/>
      <point x="774" y="630"/>
      <point x="787" y="635"/>
      <point x="787" y="644" type="curve" smooth="yes"/>
      <point x="787" y="652"/>
      <point x="779" y="655"/>
      <point x="763" y="655" type="curve" smooth="yes"/>
      <point x="713" y="655"/>
      <point x="690" y="650"/>
      <point x="643" y="650" type="curve" smooth="yes"/>
      <point x="601" y="650"/>
      <point x="585" y="655"/>
      <point x="535" y="655" type="curve" smooth="yes"/>
      <point x="519" y="655"/>
      <point x="505" y="652"/>
      <point x="505" y="644" type="curve" smooth="yes"/>
      <point x="505" y="635"/>
      <point x="510" y="630"/>
      <point x="530" y="626" type="curve" smooth="yes"/>
      <point x="574" y="617"/>
      <point x="595" y="599"/>
      <point x="581" y="552" type="curve" smooth="yes"/>
      <point x="441" y="88" type="line" smooth="yes"/>
      <point x="427" y="41"/>
      <point x="404" y="28"/>
      <point x="354" y="28" type="curve" smooth="yes"/>
      <point x="229" y="28" type="line" smooth="yes"/>
      <point x="184" y="28"/>
      <point x="174" y="41"/>
      <point x="188" y="88" type="curve" smooth="yes"/>
      <point x="328" y="552" type="line" smooth="yes"/>
      <point x="342" y="599"/>
      <point x="375" y="617"/>
      <point x="424" y="626" type="curve" smooth="yes"/>
      <point x="447" y="630"/>
      <point x="460" y="635"/>
      <point x="460" y="644" type="curve" smooth="yes"/>
      <point x="460" y="652"/>
      <point x="452" y="655"/>
      <point x="436" y="655" type="curve" smooth="yes"/>
      <point x="386" y="655"/>
      <point x="363" y="650"/>
      <point x="316" y="650" type="curve" smooth="yes"/>
      <point x="274" y="650"/>
      <point x="258" y="655"/>
      <point x="208" y="655" type="curve" smooth="yes"/>
      <point x="192" y="655"/>
      <point x="178" y="652"/>
      <point x="178" y="644" type="curve" smooth="yes"/>
      <point x="178" y="635"/>
      <point x="183" y="630"/>
      <point x="203" y="626" type="curve" smooth="yes"/>
      <point x="247" y="617"/>
      <point x="268" y="599"/>
      <point x="254" y="552" type="curve" smooth="yes"/>
      <point x="116" y="100" type="line" smooth="yes"/>
      <point x="102" y="53"/>
      <point x="77" y="37"/>
      <point x="28" y="28" type="curve" smooth="yes"/>
      <point x="5" y="24"/>
      <point x="-9" y="17"/>
      <point x="-9" y="8" type="curve" smooth="yes"/>
      <point x="-9" y="0"/>
      <point x="-1" y="-3"/>
      <point x="15" y="-3" type="curve" smooth="yes"/>
      <point x="65" y="-3"/>
      <point x="77" y="0"/>
      <point x="117" y="0" type="curve" smooth="yes"/>
      <point x="232" y="0"/>
      <point x="334" y="0"/>
      <point x="449" y="0" type="curve" smooth="yes"/>
      <point x="573" y="0"/>
      <point x="658" y="0"/>
      <point x="765" y="0" type="curve" smooth="yes"/>
      <point x="800" y="0"/>
      <point x="814" y="-8"/>
      <point x="814" y="-42" type="curve" smooth="yes"/>
      <point x="814" y="-60"/>
      <point x="810" y="-87"/>
      <point x="801" y="-123" type="curve" smooth="yes"/>
      <point x="795" y="-148"/>
      <point x="791" y="-173"/>
      <point x="791" y="-181" type="curve" smooth="yes"/>
      <point x="791" y="-195"/>
      <point x="798" y="-204"/>
      <point x="807" y="-204" type="curve" smooth="yes"/>
    </contour>
  </outline>
</glyph>
<glyph name="uni0462" format="1">
  <advance width="668"/>
  <unicode hex="0462"/>
  <note>
    uni0462
  </note>
  <outline>
    <contour>
      <point x="86" y="-5"/>
      <point x="120" y="0"/>
      <point x="174" y="0" type="curve" smooth="yes"/>
      <point x="224" y="0"/>
      <point x="251" y="-3"/>
      <point x="301" y="-3" type="curve" smooth="yes"/>
      <point x="446" y="-3"/>
      <point x="577" y="65"/>
      <point x="577" y="197" type="curve" smooth="yes"/>
      <point x="577" y="303"/>
      <point x="484" y="357"/>
      <point x="408" y="357" type="curve" smooth="yes"/>
      <point x="378" y="357"/>
      <point x="355" y="352"/>
      <point x="329" y="352" type="curve" smooth="yes"/>
      <point x="315" y="352"/>
      <point x="316" y="363"/>
      <point x="320" y="381" type="curve" smooth="yes"/>
      <point x="346" y="494" type="line" smooth="yes"/>
      <point x="348" y="501"/>
      <point x="351" y="506"/>
      <point x="359" y="506" type="curve" smooth="yes"/>
      <point x="485" y="506" type="line" smooth="yes"/>
      <point x="535" y="506"/>
      <point x="552" y="473"/>
      <point x="552" y="412" type="curve" smooth="yes"/>
      <point x="552" y="398"/>
      <point x="557" y="389"/>
      <point x="566" y="389" type="curve" smooth="yes"/>
      <point x="571" y="389"/>
      <point x="575" y="392"/>
      <point x="577" y="403" type="curve" smooth="yes"/>
      <point x="587" y="457"/>
      <point x="605" y="506"/>
      <point x="612" y="519" type="curve" smooth="yes"/>
      <point x="616" y="526"/>
      <point x="622" y="538"/>
      <point x="622" y="547" type="curve" smooth="yes"/>
      <point x="622" y="553"/>
      <point x="620" y="558"/>
      <point x="612" y="558" type="curve" smooth="yes"/>
      <point x="607" y="558"/>
      <point x="602" y="553"/>
      <point x="595" y="547" type="curve" smooth="yes"/>
      <point x="588" y="541"/>
      <point x="577" y="534"/>
      <point x="516" y="534" type="curve" smooth="yes"/>
      <point x="367" y="534" type="line" smooth="yes"/>
      <point x="361" y="534"/>
      <point x="357" y="538"/>
      <point x="359" y="543" type="curve" smooth="yes"/>
      <point x="374" y="591" type="line" smooth="yes"/>
      <point x="389" y="638"/>
      <point x="414" y="654"/>
      <point x="463" y="663" type="curve" smooth="yes"/>
      <point x="486" y="667"/>
      <point x="500" y="674"/>
      <point x="500" y="683" type="curve" smooth="yes"/>
      <point x="500" y="691"/>
      <point x="492" y="694"/>
      <point x="476" y="694" type="curve" smooth="yes"/>
      <point x="426" y="694"/>
      <point x="414" y="691"/>
      <point x="374" y="691" type="curve" smooth="yes"/>
      <point x="332" y="691"/>
      <point x="316" y="694"/>
      <point x="266" y="694" type="curve" smooth="yes"/>
      <point x="251" y="694"/>
      <point x="236" y="691"/>
      <point x="236" y="683" type="curve" smooth="yes"/>
      <point x="236" y="674"/>
      <point x="241" y="667"/>
      <point x="261" y="663" type="curve" smooth="yes"/>
      <point x="305" y="654"/>
      <point x="321" y="639"/>
      <point x="306" y="590" type="curve" smooth="yes"/>
      <point x="291" y="542" type="line" smooth="yes"/>
      <point x="289" y="537"/>
      <point x="286" y="534"/>
      <point x="279" y="534" type="curve"/>
      <point x="221" y="534" type="line" smooth="yes"/>
      <point x="159" y="534"/>
      <point x="151" y="540"/>
      <point x="145" y="546" type="curve" smooth="yes"/>
      <point x="139" y="552"/>
      <point x="132" y="558"/>
      <point x="127" y="558" type="curve" smooth="yes"/>
      <point x="122" y="558"/>
      <point x="113" y="547"/>
      <point x="110" y="538" type="curve" smooth="yes"/>
      <point x="98" y="503"/>
      <point x="81" y="467"/>
      <point x="68" y="440" type="curve" smooth="yes"/>
      <point x="60" y="423"/>
      <point x="58" y="411"/>
      <point x="58" y="409" type="curve" smooth="yes"/>
      <point x="58" y="398"/>
      <point x="61" y="396"/>
      <point x="69" y="396" type="curve" smooth="yes"/>
      <point x="80" y="396"/>
      <point x="94" y="424"/>
      <point x="112" y="445" type="curve" smooth="yes"/>
      <point x="136" y="474"/>
      <point x="167" y="506"/>
      <point x="232" y="506" type="curve" smooth="yes"/>
      <point x="266" y="506" type="line" smooth="yes"/>
      <point x="275" y="506"/>
      <point x="279" y="502"/>
      <point x="277" y="497" type="curve" smooth="yes"/>
      <point x="156" y="99" type="line" smooth="yes"/>
      <point x="141" y="51"/>
      <point x="97" y="33"/>
      <point x="48" y="24" type="curve" smooth="yes"/>
      <point x="25" y="20"/>
      <point x="12" y="15"/>
      <point x="12" y="6" type="curve" smooth="yes"/>
      <point x="12" y="-2"/>
      <point x="20" y="-5"/>
      <point x="36" y="-5" type="curve" smooth="yes"/>
    </contour>
    <contour>
      <point x="257" y="27"/>
      <point x="217" y="48"/>
      <point x="234" y="104" type="curve" smooth="yes"/>
      <point x="249" y="154"/>
      <point x="272" y="227"/>
      <point x="292" y="283" type="curve" smooth="yes"/>
      <point x="300" y="306"/>
      <point x="325" y="323"/>
      <point x="361" y="323" type="curve" smooth="yes"/>
      <point x="444" y="323"/>
      <point x="490" y="265"/>
      <point x="490" y="186" type="curve" smooth="yes"/>
      <point x="490" y="91"/>
      <point x="420" y="27"/>
      <point x="313" y="27" type="curve" smooth="yes"/>
    </contour>
  </outline>
</glyph>
<glyph name="uni0472" format="1">
  <advance width="694"/>
  <unicode hex="0472"/>
  <note>
    uni0472
  </note>
  <outline>
    <contour>
      <point x="541" y="275"/>
      <point x="604" y="309"/>
      <point x="632" y="335" type="curve"/>
      <point x="631" y="358" type="line"/>
      <point x="609" y="346"/>
      <point x="551" y="337"/>
      <point x="492" y="337" type="curve" smooth="yes"/>
      <point x="452" y="337"/>
      <point x="423" y="349"/>
      <point x="394" y="362" type="curve" smooth="yes"/>
      <point x="364" y="375"/>
      <point x="334" y="388"/>
      <point x="292" y="388" type="curve" smooth="yes"/>
      <point x="243" y="388"/>
      <point x="173" y="356"/>
      <point x="147" y="328" type="curve"/>
      <point x="148" y="305" type="line"/>
      <point x="172" y="315"/>
      <point x="228" y="326"/>
      <point x="287" y="326" type="curve" smooth="yes"/>
      <point x="328" y="326"/>
      <point x="358" y="313"/>
      <point x="388" y="300" type="curve" smooth="yes"/>
      <point x="417" y="287"/>
      <point x="446" y="275"/>
      <point x="487" y="275" type="curve" smooth="yes"/>
    </contour>
    <component base="O"/>
  </outline>
</glyph>
<glyph name="uni0473" format="1">
  <advance width="380"/>
  <unicode hex="0473"/>
  <note>
    uni0473
  </note>
  <outline>
    <contour>
      <point x="293" y="193" type="line"/>
      <point x="292" y="234" type="line"/>
      <point x="85" y="218" type="line"/>
      <point x="85" y="177" type="line"/>
    </contour>
    <component base="o"/>
  </outline>
</glyph>
<glyph name="ghestroke-cy" format="1">
  <advance width="342"/>
  <unicode hex="0493"/>
  <outline>
    <contour>
      <point x="272" y="179" type="line"/>
      <point x="290" y="179"/>
      <point x="306" y="201"/>
      <point x="306" y="209" type="curve" smooth="yes"/>
      <point x="306" y="217"/>
      <point x="300" y="223"/>
      <point x="293" y="223" type="curve"/>
      <point x="43" y="223" type="line"/>
      <point x="27" y="223"/>
      <point x="16" y="205"/>
      <point x="16" y="192" type="curve" smooth="yes"/>
      <point x="16" y="184"/>
      <point x="23" y="179"/>
      <point x="30" y="179" type="curve"/>
    </contour>
    <component base="uni0433" xOffset="10"/>
  </outline>
</glyph>
<glyph name="uni04AF" format="1">
  <advance width="454"/>
  <unicode hex="04AF"/>
  <note>
    uni04AF
  </note>
  <outline>
    <contour>
      <point x="171" y="-285"/>
      <point x="185" y="-285"/>
      <point x="188" y="-276" type="curve" smooth="yes"/>
      <point x="191" y="-266"/>
      <point x="180" y="-262"/>
      <point x="171" y="-258" type="curve"/>
      <point x="152" y="-252"/>
      <point x="111" y="-247"/>
      <point x="119" y="-220" type="curve" smooth="yes"/>
      <point x="181" y="-21" type="line" smooth="yes"/>
      <point x="188" y="2"/>
      <point x="200" y="25"/>
      <point x="212" y="46" type="curve"/>
      <point x="168" y="-3" type="line"/>
      <point x="243" y="30"/>
      <point x="287" y="133"/>
      <point x="333" y="220" type="curve" smooth="yes"/>
      <point x="371" y="292"/>
      <point x="405" y="351"/>
      <point x="441" y="351" type="curve" smooth="yes"/>
      <point x="462" y="351"/>
      <point x="473" y="349"/>
      <point x="488" y="345" type="curve"/>
      <point x="494" y="353"/>
      <point x="501" y="360"/>
      <point x="501" y="372" type="curve" smooth="yes"/>
      <point x="501" y="399"/>
      <point x="492" y="414"/>
      <point x="475" y="414" type="curve" smooth="yes"/>
      <point x="409" y="414"/>
      <point x="356" y="319"/>
      <point x="308" y="231" type="curve" smooth="yes"/>
      <point x="265" y="152"/>
      <point x="238" y="79"/>
      <point x="197" y="79" type="curve"/>
      <point x="189" y="79"/>
      <point x="186" y="84"/>
      <point x="186" y="91" type="curve" smooth="yes"/>
      <point x="175" y="310" type="line"/>
      <point x="175" y="318"/>
      <point x="177" y="327"/>
      <point x="179" y="336" type="curve" smooth="yes"/>
      <point x="185" y="355"/>
      <point x="197" y="374"/>
      <point x="212" y="378" type="curve"/>
      <point x="225" y="382"/>
      <point x="238" y="386"/>
      <point x="241" y="396" type="curve" smooth="yes"/>
      <point x="244" y="405"/>
      <point x="229" y="405"/>
      <point x="221" y="405" type="curve" smooth="yes"/>
      <point x="182" y="405"/>
      <point x="182" y="400"/>
      <point x="147" y="400" type="curve" smooth="yes"/>
      <point x="112" y="400"/>
      <point x="123" y="405"/>
      <point x="84" y="405" type="curve" smooth="yes"/>
      <point x="76" y="405"/>
      <point x="61" y="405"/>
      <point x="58" y="396" type="curve" smooth="yes"/>
      <point x="55" y="386"/>
      <point x="66" y="382"/>
      <point x="75" y="378" type="curve"/>
      <point x="94" y="372"/>
      <point x="104" y="354"/>
      <point x="106" y="329" type="curve" smooth="yes"/>
      <point x="120" y="117" type="line" smooth="yes"/>
      <point x="123" y="72"/>
      <point x="124" y="16"/>
      <point x="114" y="-16" type="curve" smooth="yes"/>
      <point x="41" y="-247" type="line" smooth="yes"/>
      <point x="36" y="-263"/>
      <point x="31" y="-280"/>
      <point x="66" y="-280" type="curve" smooth="yes"/>
      <point x="101" y="-280"/>
      <point x="123" y="-285"/>
      <point x="162" y="-285" type="curve" smooth="yes"/>
    </contour>
  </outline>
</glyph>
<glyph name="cheabkhasian-cy" format="1">
  <advance width="445"/>
  <unicode hex="04BD"/>
  <outline>
    <contour>
      <point x="166" y="239" type="line"/>
      <point x="122" y="239"/>
      <point x="88" y="264"/>
      <point x="88" y="300" type="curve" smooth="yes"/>
      <point x="88" y="314"/>
      <point x="99" y="323"/>
      <point x="110" y="334" type="curve" smooth="yes"/>
      <point x="122" y="345"/>
      <point x="134" y="357"/>
      <point x="134" y="377" type="curve" smooth="yes"/>
      <point x="134" y="390"/>
      <point x="124" y="402"/>
      <point x="104" y="402" type="curve" smooth="yes"/>
      <point x="72" y="402"/>
      <point x="48" y="362"/>
      <point x="48" y="319" type="curve" smooth="yes"/>
      <point x="48" y="270"/>
      <point x="81" y="217"/>
      <point x="175" y="217" type="curve"/>
    </contour>
    <component base="e" xOffset="104"/>
    <contour>
      <point x="370" y="440" type="move" name="top"/>
    </contour>
  </outline>
</glyph>
<glyph name="uni04E8" format="1">
  <advance width="713"/>
  <unicode hex="04E8"/>
  <note>
    uni04E8
  </note>
  <outline>
    <contour>
      <point x="643" y="316" type="line"/>
      <point x="678" y="356" type="line"/>
      <point x="156" y="356" type="line"/>
      <point x="138" y="316" type="line"/>
    </contour>
    <component base="O"/>
  </outline>
</glyph>
<glyph name="Hastroke-cy" format="1">
  <advance width="653"/>
  <unicode hex="04FE"/>
  <outline>
    <contour>
      <point x="555" y="322" type="line"/>
      <point x="570" y="322"/>
      <point x="582" y="331"/>
      <point x="593" y="344" type="curve"/>
      <point x="594" y="345"/>
      <point x="595" y="346"/>
      <point x="595" y="347" type="curve" smooth="yes"/>
      <point x="595" y="353"/>
      <point x="591" y="358"/>
      <point x="585" y="358" type="curve"/>
      <point x="162" y="358" type="line"/>
      <point x="150" y="358"/>
      <point x="135" y="349"/>
      <point x="132" y="340" type="curve" smooth="yes"/>
      <point x="130" y="334"/>
      <point x="131" y="322"/>
      <point x="140" y="322" type="curve"/>
    </contour>
    <component base="X" xOffset="10"/>
  </outline>
</glyph>
<glyph name="uni1DC4" format="1">
  <advance width="0"/>
  <unicode hex="1DC4"/>
  <note>
    uni1DC4
  </note>
  <outline>
    <contour>
      <point x="150" y="494" type="line" smooth="yes"/>
      <point x="158" y="494"/>
      <point x="167" y="501"/>
      <point x="173" y="509" type="curve"/>
      <point x="265" y="617" type="line" smooth="yes"/>
      <point x="277" y="632"/>
      <point x="283" y="641"/>
      <point x="283" y="647" type="curve" smooth="yes"/>
      <point x="283" y="662"/>
      <point x="254" y="683"/>
      <point x="244" y="683" type="curve" smooth="yes"/>
      <point x="234" y="683"/>
      <point x="226" y="671"/>
      <point x="219" y="658" type="curve" smooth="yes"/>
      <point x="157" y="538" type="line"/>
      <point x="-21" y="538" type="line" smooth="yes"/>
      <point x="-37" y="538"/>
      <point x="-50" y="514"/>
      <point x="-50" y="503" type="curve" smooth="yes"/>
      <point x="-50" y="498"/>
      <point x="-46" y="494"/>
      <point x="-41" y="494" type="curve" smooth="yes"/>
    </contour>
  </outline>
</glyph>
<glyph name="uni1FBF" format="1">
  <advance width="225"/>
  <unicode hex="1FBF"/>
  <note>
    uni1FBF
  </note>
  <outline>
    <contour>
      <point x="200" y="448"/>
      <point x="288" y="503"/>
      <point x="288" y="585" type="curve" smooth="yes"/>
      <point x="288" y="620"/>
      <point x="269" y="642"/>
      <point x="233" y="642" type="curve" smooth="yes"/>
      <point x="201" y="642"/>
      <point x="180" y="623"/>
      <point x="180" y="604" type="curve" smooth="yes"/>
      <point x="180" y="588"/>
      <point x="189" y="578"/>
      <point x="203" y="571" type="curve" smooth="yes"/>
      <point x="217" y="564"/>
      <point x="227" y="556"/>
      <point x="227" y="538" type="curve" smooth="yes"/>
      <point x="227" y="506"/>
      <point x="188" y="484"/>
      <point x="149" y="471" type="curve" smooth="yes"/>
      <point x="140" y="468"/>
      <point x="133" y="464"/>
      <point x="133" y="457" type="curve" smooth="yes"/>
      <point x="133" y="453"/>
      <point x="137" y="448"/>
      <point x="147" y="448" type="curve" smooth="yes"/>
    </contour>
    <contour>
      <point x="191" y="440" type="move" name="_topgreek"/>
    </contour>
  </outline>
</glyph>
<glyph name="uni1FC1" format="1">
  <advance width="300"/>
  <unicode hex="1FC1"/>
  <note>
    uni1FC1
  </note>
  <outline>
    <component base="dieresis" xOffset="-4" yOffset="-15"/>
    <component base="uni1FC0" xOffset="54" yOffset="159"/>
    <contour>
      <point x="232" y="440" type="move" name="_top"/>
    </contour>
  </outline>
</glyph>
<glyph name="uni1FCF" format="1">
  <advance width="300"/>
  <unicode hex="1FCF"/>
  <note>
    uni1FCF
  </note>
  <outline>
    <component base="uni0313.grkstacksc" xOffset="175" yOffset="-4"/>
    <component base="uni1FC0" xOffset="53" yOffset="147"/>
    <contour>
      <point x="255" y="440" type="move" name="_topgreek"/>
    </contour>
  </outline>
</glyph>
<glyph name="uni1FDD" format="1">
  <advance width="300"/>
  <unicode hex="1FDD"/>
  <note>
    uni1FDD
  </note>
  <outline>
    <contour>
      <point x="361" y="440"/>
      <point x="363" y="446"/>
      <point x="366" y="461" type="curve" smooth="yes"/>
      <point x="369" y="475"/>
      <point x="378" y="593"/>
      <point x="378" y="629" type="curve" smooth="yes"/>
      <point x="378" y="641"/>
      <point x="367" y="647"/>
      <point x="359" y="647" type="curve" smooth="yes"/>
      <point x="340" y="647"/>
      <point x="307" y="627"/>
      <point x="307" y="600" type="curve" smooth="yes"/>
      <point x="307" y="579"/>
      <point x="325" y="495"/>
      <point x="336" y="459" type="curve" smooth="yes"/>
      <point x="339" y="449"/>
      <point x="344" y="440"/>
      <point x="352" y="440" type="curve" smooth="yes"/>
    </contour>
    <component base="uni1FFE" xOffset="-15" yOffset="1"/>
    <contour>
      <point x="242" y="440" type="move" name="_topgreek"/>
    </contour>
  </outline>
</glyph>
<glyph name="bullet" format="1">
  <advance width="341"/>
  <unicode hex="2022"/>
  <note>
    bullet
  </note>
  <outline>
    <contour>
      <point x="278" y="231"/>
      <point x="344" y="295"/>
      <point x="344" y="376" type="curve" smooth="yes"/>
      <point x="344" y="435"/>
      <point x="300" y="488"/>
      <point x="242" y="488" type="curve" smooth="yes"/>
      <point x="162" y="488"/>
      <point x="96" y="423"/>
      <point x="96" y="343" type="curve" smooth="yes"/>
      <point x="96" y="284"/>
      <point x="138" y="231"/>
      <point x="197" y="231" type="curve" smooth="yes"/>
    </contour>
  </outline>
</glyph>
<glyph name="uni203E" format="1">
  <advance width="473"/>
  <unicode hex="203E"/>
  <note>
    uni203E
  </note>
  <outline>
    <contour>
      <point x="504" y="557" type="line" smooth="yes"/>
      <point x="517" y="557"/>
      <point x="548" y="585"/>
      <point x="548" y="608" type="curve" smooth="yes"/>
      <point x="548" y="613"/>
      <point x="544" y="617"/>
      <point x="539" y="617" type="curve" smooth="yes"/>
      <point x="202" y="617" type="line" smooth="yes"/>
      <point x="183" y="617"/>
      <point x="164" y="577"/>
      <point x="164" y="566" type="curve" smooth="yes"/>
      <point x="164" y="561"/>
      <point x="168" y="557"/>
      <point x="174" y="557" type="curve" smooth="yes"/>
    </contour>
  </outline>
</glyph>
<glyph name="fraction" format="1">
  <advance width="24"/>
  <unicode hex="2044"/>
  <note>
    fraction
  </note>
  <outline>
    <contour>
      <point x="-243" y="-29"/>
      <point x="-230" y="-27"/>
      <point x="-219" y="-14" type="curve" smooth="yes"/>
      <point x="387" y="654" type="line" smooth="yes"/>
      <point x="393" y="661"/>
      <point x="389" y="671"/>
      <point x="375" y="671" type="curve" smooth="yes"/>
      <point x="361" y="671"/>
      <point x="351" y="668"/>
      <point x="338" y="654" type="curve" smooth="yes"/>
      <point x="-268" y="-14" type="line" smooth="yes"/>
      <point x="-274" y="-21"/>
      <point x="-265" y="-29"/>
      <point x="-257" y="-29" type="curve" smooth="yes"/>
    </contour>
  </outline>
</glyph>
<glyph name="colonsign" format="1">
  <advance width="631"/>
  <unicode hex="20A1"/>
  <outline>
    <contour>
      <point x="61" y="-104"/>
      <point x="76" y="-105"/>
      <point x="84" y="-92" type="curve" smooth="yes"/>
      <point x="562" y="724" type="line" smooth="yes"/>
      <point x="567" y="733"/>
      <point x="565" y="741"/>
      <point x="552" y="743" type="curve" smooth="yes"/>
      <point x="535" y="746"/>
      <point x="519" y="746"/>
      <point x="511" y="732" type="curve" smooth="yes"/>
      <point x="33" y="-85" type="line" smooth="yes"/>
      <point x="29" y="-92"/>
      <point x="33" y="-100"/>
      <point x="46" y="-102" type="curve" smooth="yes"/>
    </contour>
    <contour>
      <point x="188" y="-101"/>
      <point x="203" y="-102"/>
      <point x="211" y="-89" type="curve" smooth="yes"/>
      <point x="686" y="724" type="line" smooth="yes"/>
      <point x="691" y="732"/>
      <point x="689" y="741"/>
      <point x="676" y="743" type="curve" smooth="yes"/>
      <point x="659" y="746"/>
      <point x="643" y="745"/>
      <point x="635" y="731" type="curve" smooth="yes"/>
      <point x="159" y="-82" type="line" smooth="yes"/>
      <point x="154" y="-90"/>
      <point x="160" y="-97"/>
      <point x="173" y="-99" type="curve" smooth="yes"/>
    </contour>
    <component base="C"/>
  </outline>
</glyph>
<glyph name="naira" format="1">
  <advance width="826"/>
  <unicode hex="20A6"/>
  <outline>
    <contour>
      <point x="839" y="316" type="line" smooth="yes"/>
      <point x="856" y="316"/>
      <point x="869" y="330"/>
      <point x="880" y="346" type="curve"/>
      <point x="885" y="353"/>
      <point x="878" y="360"/>
      <point x="871" y="360" type="curve" smooth="yes"/>
      <point x="59" y="347" type="line" smooth="yes"/>
      <point x="45" y="347"/>
      <point x="30" y="330"/>
      <point x="27" y="321" type="curve" smooth="yes"/>
      <point x="25" y="315"/>
      <point x="30" y="309"/>
      <point x="37" y="309" type="curve" smooth="yes"/>
    </contour>
    <component base="N" xOffset="5"/>
  </outline>
</glyph>
<glyph name="won" format="1">
  <advance width="1067"/>
  <unicode hex="20A9"/>
  <outline>
    <contour>
      <point x="983" y="316" type="line" smooth="yes"/>
      <point x="1000" y="316"/>
      <point x="1008" y="330"/>
      <point x="1014" y="346" type="curve"/>
      <point x="1017" y="353"/>
      <point x="1008" y="360"/>
      <point x="1001" y="360" type="curve" smooth="yes"/>
      <point x="143" y="347" type="line" smooth="yes"/>
      <point x="129" y="347"/>
      <point x="119" y="330"/>
      <point x="119" y="321" type="curve" smooth="yes"/>
      <point x="119" y="315"/>
      <point x="126" y="309"/>
      <point x="133" y="309" type="curve" smooth="yes"/>
    </contour>
    <component base="W"/>
  </outline>
</glyph>
<glyph name="peso" format="1">
  <advance width="600"/>
  <unicode hex="20B1"/>
  <outline>
    <contour>
      <point x="645" y="494" type="line" smooth="yes"/>
      <point x="662" y="494"/>
      <point x="675" y="508"/>
      <point x="686" y="524" type="curve"/>
      <point x="691" y="531"/>
      <point x="684" y="538"/>
      <point x="677" y="538" type="curve" smooth="yes"/>
      <point x="149" y="525" type="line" smooth="yes"/>
      <point x="135" y="525"/>
      <point x="120" y="508"/>
      <point x="117" y="499" type="curve" smooth="yes"/>
      <point x="115" y="493"/>
      <point x="120" y="487"/>
      <point x="127" y="487" type="curve" smooth="yes"/>
    </contour>
    <contour>
      <point x="611" y="384" type="line" smooth="yes"/>
      <point x="628" y="384"/>
      <point x="641" y="398"/>
      <point x="652" y="414" type="curve"/>
      <point x="657" y="421"/>
      <point x="650" y="428"/>
      <point x="643" y="428" type="curve" smooth="yes"/>
      <point x="115" y="415" type="line" smooth="yes"/>
      <point x="101" y="415"/>
      <point x="86" y="398"/>
      <point x="83" y="389" type="curve" smooth="yes"/>
      <point x="81" y="383"/>
      <point x="86" y="377"/>
      <point x="93" y="377" type="curve" smooth="yes"/>
    </contour>
    <component base="P"/>
  </outline>
</glyph>
<glyph name="uni2223" format="1">
  <advance width="260"/>
  <unicode hex="2223"/>
  <note>
    uni2223
  </note>
  <outline>
    <contour>
      <point x="122" y="-289"/>
      <point x="161" y="-286"/>
      <point x="161" y="-265" type="curve" smooth="yes"/>
      <point x="161" y="694" type="line" smooth="yes"/>
      <point x="161" y="701"/>
      <point x="154" y="707"/>
      <point x="147" y="707" type="curve" smooth="yes"/>
      <point x="141" y="707"/>
      <point x="101" y="698"/>
      <point x="101" y="676" type="curve" smooth="yes"/>
      <point x="101" y="-275" type="line" smooth="yes"/>
      <point x="101" y="-282"/>
      <point x="107" y="-289"/>
      <point x="113" y="-289" type="curve" smooth="yes"/>
    </contour>
  </outline>
</glyph>
<glyph name="dotmath" format="1">
  <advance width="201"/>
  <unicode hex="22C5"/>
  <note>
    dotmath
  </note>
  <outline>
    <contour>
      <point x="132" y="150"/>
      <point x="157" y="175"/>
      <point x="157" y="205" type="curve" smooth="yes"/>
      <point x="157" y="235"/>
      <point x="132" y="260"/>
      <point x="102" y="260" type="curve" smooth="yes"/>
      <point x="72" y="260"/>
      <point x="47" y="235"/>
      <point x="47" y="205" type="curve" smooth="yes"/>
      <point x="47" y="175"/>
      <point x="72" y="150"/>
      <point x="102" y="150" type="curve" smooth="yes"/>
    </contour>
  </outline>
</glyph>
<glyph name="uni2C65" format="1">
  <advance width="491"/>
  <unicode hex="2C65"/>
  <note>
    uni2C65
  </note>
  <outline>
    <contour>
      <point x="46" y="-109"/>
      <point x="61" y="-110"/>
      <point x="68" y="-96" type="curve" smooth="yes"/>
      <point x="371" y="478" type="line" smooth="yes"/>
      <point x="374" y="485"/>
      <point x="381" y="497"/>
      <point x="380" y="501" type="curve" smooth="yes"/>
      <point x="378" y="508"/>
      <point x="376" y="513"/>
      <point x="370" y="513" type="curve" smooth="yes"/>
      <point x="351" y="513"/>
      <point x="337" y="505"/>
      <point x="328" y="489" type="curve" smooth="yes"/>
      <point x="20" y="-91" type="line" smooth="yes"/>
      <point x="17" y="-96"/>
      <point x="16" y="-102"/>
      <point x="16" y="-102" type="curve" smooth="yes"/>
      <point x="16" y="-109"/>
      <point x="20" y="-112"/>
      <point x="29" y="-111" type="curve" smooth="yes"/>
    </contour>
    <component base="a"/>
  </outline>
</glyph>
<glyph name="uni2C6A" format="1">
  <advance width="469"/>
  <unicode hex="2C6A"/>
  <note>
    uni2C6A
  </note>
  <outline>
    <contour>
      <point x="232" y="-220"/>
      <point x="291" y="-204"/>
      <point x="326" y="-180" type="curve" smooth="yes"/>
      <point x="376" y="-146"/>
      <point x="395" y="-78"/>
      <point x="408" y="0" type="curve" smooth="yes"/>
      <point x="412" y="24"/>
      <point x="432" y="69"/>
      <point x="432" y="98" type="curve"/>
      <point x="411" y="66" type="line"/>
      <point x="415" y="60" type="line"/>
      <point x="388" y="23"/>
      <point x="368" y="-6"/>
      <point x="354" y="-29" type="curve" smooth="yes"/>
      <point x="340" y="-53"/>
      <point x="332" y="-68"/>
      <point x="321" y="-100" type="curve" smooth="yes"/>
      <point x="297" y="-170"/>
      <point x="258" y="-187"/>
      <point x="216" y="-201" type="curve"/>
      <point x="211" y="-203"/>
      <point x="207" y="-205"/>
      <point x="207" y="-210" type="curve" smooth="yes"/>
      <point x="207" y="-218"/>
      <point x="216" y="-220"/>
      <point x="223" y="-220" type="curve" smooth="yes"/>
    </contour>
    <component base="k"/>
  </outline>
</glyph>
<glyph name="uni2C7E" format="1">
  <advance width="467"/>
  <unicode hex="2C7E"/>
  <note>
    uni2C7E
  </note>
  <outline>
    <contour>
      <point x="333" y="-220"/>
      <point x="364" y="-189"/>
      <point x="365" y="-162" type="curve" smooth="yes"/>
      <point x="366" y="-142"/>
      <point x="349" y="-124"/>
      <point x="330" y="-124" type="curve" smooth="yes"/>
      <point x="313" y="-124"/>
      <point x="301" y="-130"/>
      <point x="281" y="-148" type="curve" smooth="yes"/>
      <point x="257" y="-170"/>
      <point x="251" y="-183"/>
      <point x="234" y="-183" type="curve" smooth="yes"/>
      <point x="199" y="-183"/>
      <point x="191" y="-127"/>
      <point x="184" y="-87" type="curve" smooth="yes"/>
      <point x="174" y="-41"/>
      <point x="166" y="10"/>
      <point x="113" y="10" type="curve"/>
      <point x="40" y="18" type="line"/>
      <point x="96" y="-6"/>
      <point x="106" y="-61"/>
      <point x="123" y="-109" type="curve" smooth="yes"/>
      <point x="139" y="-157"/>
      <point x="162" y="-220"/>
      <point x="243" y="-220" type="curve" smooth="yes"/>
    </contour>
    <component base="S"/>
  </outline>
</glyph>
<glyph name="uniA72B" format="1">
  <advance width="391"/>
  <unicode hex="A72B"/>
  <note>
    uniA72B
  </note>
  <outline>
    <contour>
      <point x="252" y="-190"/>
      <point x="320" y="-110"/>
      <point x="320" y="-89" type="curve" smooth="yes"/>
      <point x="320" y="-82"/>
      <point x="318" y="-77"/>
      <point x="313" y="-77" type="curve" smooth="yes"/>
      <point x="308" y="-77"/>
      <point x="300" y="-81"/>
      <point x="297" y="-85" type="curve"/>
      <point x="270" y="-114"/>
      <point x="246" y="-135"/>
      <point x="201" y="-135" type="curve" smooth="yes"/>
      <point x="162" y="-135"/>
      <point x="137" y="-107"/>
      <point x="137" y="-69" type="curve" smooth="yes"/>
      <point x="137" y="-16"/>
      <point x="159" y="21"/>
      <point x="177" y="37" type="curve" smooth="yes"/>
      <point x="206" y="63"/>
      <point x="225" y="75"/>
      <point x="247" y="88" type="curve" smooth="yes"/>
      <point x="259" y="95"/>
      <point x="278" y="113"/>
      <point x="278" y="122" type="curve" smooth="yes"/>
      <point x="278" y="130"/>
      <point x="269" y="131"/>
      <point x="261" y="131" type="curve" smooth="yes"/>
      <point x="257" y="131"/>
      <point x="230" y="111"/>
      <point x="199" y="111" type="curve" smooth="yes"/>
      <point x="125" y="111"/>
      <point x="113" y="174"/>
      <point x="113" y="206" type="curve" smooth="yes"/>
      <point x="113" y="302"/>
      <point x="170" y="367"/>
      <point x="252" y="367" type="curve" smooth="yes"/>
      <point x="281" y="367"/>
      <point x="294" y="354"/>
      <point x="305" y="342" type="curve" smooth="yes"/>
      <point x="315" y="330"/>
      <point x="324" y="318"/>
      <point x="343" y="318" type="curve" smooth="yes"/>
      <point x="353" y="318"/>
      <point x="383" y="340"/>
      <point x="383" y="357" type="curve" smooth="yes"/>
      <point x="383" y="391"/>
      <point x="327" y="413"/>
      <point x="270" y="413" type="curve" smooth="yes"/>
      <point x="258" y="413"/>
      <point x="225" y="404"/>
      <point x="201" y="392" type="curve" smooth="yes"/>
      <point x="122" y="353"/>
      <point x="37" y="291"/>
      <point x="37" y="170" type="curve" smooth="yes"/>
      <point x="37" y="126"/>
      <point x="68" y="64"/>
      <point x="160" y="62" type="curve" smooth="yes"/>
      <point x="165" y="62"/>
      <point x="165" y="58"/>
      <point x="161" y="56" type="curve"/>
      <point x="83" y="11"/>
      <point x="67" y="-54"/>
      <point x="67" y="-86" type="curve" smooth="yes"/>
      <point x="67" y="-149"/>
      <point x="110" y="-190"/>
      <point x="175" y="-190" type="curve" smooth="yes"/>
    </contour>
  </outline>
</glyph>
<glyph name="M.ordn" format="1">
  <advance width="616"/>
  <note>
    M.ordn
  </note>
  <outline>
    <contour>
      <point x="313" y="269"/>
      <point x="318" y="273"/>
      <point x="326" y="284" type="curve" smooth="yes"/>
      <point x="392" y="375" type="line"/>
      <point x="560" y="576" type="line" smooth="yes"/>
      <point x="564" y="581"/>
      <point x="568" y="579"/>
      <point x="567" y="575" type="curve" smooth="yes"/>
      <point x="546" y="492"/>
      <point x="530" y="431"/>
      <point x="504" y="340" type="curve" smooth="yes"/>
      <point x="496" y="313"/>
      <point x="485" y="300"/>
      <point x="460" y="294" type="curve" smooth="yes"/>
      <point x="447" y="291"/>
      <point x="440" y="288"/>
      <point x="440" y="283" type="curve" smooth="yes"/>
      <point x="440" y="278"/>
      <point x="444" y="275"/>
      <point x="453" y="275" type="curve" smooth="yes"/>
      <point x="482" y="275"/>
      <point x="489" y="283"/>
      <point x="515" y="283" type="curve" smooth="yes"/>
      <point x="541" y="283"/>
      <point x="559" y="275"/>
      <point x="588" y="275" type="curve" smooth="yes"/>
      <point x="597" y="275"/>
      <point x="605" y="279"/>
      <point x="605" y="283" type="curve" smooth="yes"/>
      <point x="605" y="288"/>
      <point x="601" y="291"/>
      <point x="590" y="293" type="curve" smooth="yes"/>
      <point x="565" y="298"/>
      <point x="557" y="317"/>
      <point x="567" y="370" type="curve" smooth="yes"/>
      <point x="582" y="447"/>
      <point x="596" y="526"/>
      <point x="617" y="600" type="curve" smooth="yes"/>
      <point x="629" y="643"/>
      <point x="635" y="648"/>
      <point x="670" y="652" type="curve" smooth="yes"/>
      <point x="688" y="654"/>
      <point x="693" y="658"/>
      <point x="693" y="665" type="curve" smooth="yes"/>
      <point x="693" y="671"/>
      <point x="684" y="674"/>
      <point x="674" y="674" type="curve" smooth="yes"/>
      <point x="664" y="674"/>
      <point x="634" y="669"/>
      <point x="625" y="669" type="curve" smooth="yes"/>
      <point x="599" y="669" type="line" smooth="yes"/>
      <point x="594" y="669"/>
      <point x="590" y="667"/>
      <point x="587" y="660" type="curve" smooth="yes"/>
      <point x="583" y="649"/>
      <point x="579" y="641"/>
      <point x="570" y="624" type="curve"/>
      <point x="502" y="539"/>
      <point x="438" y="468"/>
      <point x="371" y="381" type="curve" smooth="yes"/>
      <point x="362" y="370"/>
      <point x="354" y="364"/>
      <point x="354" y="382" type="curve" smooth="yes"/>
      <point x="349" y="630" type="line"/>
      <point x="350" y="660"/>
      <point x="347" y="671"/>
      <point x="332" y="671" type="curve" smooth="yes"/>
      <point x="309" y="671"/>
      <point x="255" y="674"/>
      <point x="236" y="674" type="curve" smooth="yes"/>
      <point x="222" y="674"/>
      <point x="212" y="671"/>
      <point x="212" y="665" type="curve" smooth="yes"/>
      <point x="212" y="658"/>
      <point x="218" y="656"/>
      <point x="235" y="654" type="curve" smooth="yes"/>
      <point x="281" y="648"/>
      <point x="287" y="628"/>
      <point x="272" y="598" type="curve" smooth="yes"/>
      <point x="158" y="364" type="line" smooth="yes"/>
      <point x="132" y="311"/>
      <point x="114" y="296"/>
      <point x="82" y="291" type="curve" smooth="yes"/>
      <point x="69" y="289"/>
      <point x="62" y="285"/>
      <point x="62" y="279" type="curve" smooth="yes"/>
      <point x="62" y="275"/>
      <point x="67" y="273"/>
      <point x="76" y="273" type="curve" smooth="yes"/>
      <point x="104" y="273"/>
      <point x="105" y="277"/>
      <point x="125" y="277" type="curve" smooth="yes"/>
      <point x="151" y="277"/>
      <point x="158" y="275"/>
      <point x="186" y="275" type="curve" smooth="yes"/>
      <point x="196" y="275"/>
      <point x="206" y="278"/>
      <point x="206" y="283" type="curve" smooth="yes"/>
      <point x="206" y="288"/>
      <point x="200" y="291"/>
      <point x="189" y="293" type="curve" smooth="yes"/>
      <point x="172" y="296"/>
      <point x="167" y="309"/>
      <point x="190" y="365" type="curve" smooth="yes"/>
      <point x="220" y="439"/>
      <point x="251" y="506"/>
      <point x="287" y="578" type="curve" smooth="yes"/>
      <point x="296" y="596"/>
      <point x="303" y="597"/>
      <point x="304" y="580" type="curve" smooth="yes"/>
      <point x="310" y="480"/>
      <point x="306" y="385"/>
      <point x="306" y="284" type="curve" smooth="yes"/>
      <point x="306" y="275"/>
      <point x="308" y="269"/>
      <point x="311" y="269" type="curve" smooth="yes"/>
    </contour>
  </outline>
</glyph>
<glyph name="O.ordn" format="1">
  <advance width="479"/>
  <note>
    O.ordn
  </note>
  <outline>
    <contour>
      <point x="425" y="272"/>
      <point x="525" y="388"/>
      <point x="525" y="544" type="curve" smooth="yes"/>
      <point x="525" y="620"/>
      <point x="465" y="678"/>
      <point x="385" y="678" type="curve" smooth="yes"/>
      <point x="226" y="678"/>
      <point x="126" y="566"/>
      <point x="126" y="412" type="curve" smooth="yes"/>
      <point x="126" y="329"/>
      <point x="190" y="272"/>
      <point x="271" y="272" type="curve" smooth="yes"/>
    </contour>
    <contour>
      <point x="217" y="296"/>
      <point x="183" y="339"/>
      <point x="183" y="406" type="curve" smooth="yes"/>
      <point x="183" y="533"/>
      <point x="270" y="656"/>
      <point x="376" y="656" type="curve" smooth="yes"/>
      <point x="442" y="656"/>
      <point x="472" y="607"/>
      <point x="472" y="542" type="curve" smooth="yes"/>
      <point x="472" y="416"/>
      <point x="382" y="295"/>
      <point x="277" y="295" type="curve" smooth="yes"/>
    </contour>
  </outline>
</glyph>
<glyph name="O.sc" format="1">
  <advance width="585"/>
  <note>
    O.sc
  </note>
  <outline>
    <contour>
      <point x="429" y="-14"/>
      <point x="537" y="146"/>
      <point x="537" y="280" type="curve" smooth="yes"/>
      <point x="537" y="376"/>
      <point x="483" y="459"/>
      <point x="361" y="459" type="curve" smooth="yes"/>
      <point x="170" y="459"/>
      <point x="62" y="300"/>
      <point x="62" y="165" type="curve" smooth="yes"/>
      <point x="62" y="69"/>
      <point x="118" y="-14"/>
      <point x="238" y="-14" type="curve" smooth="yes"/>
    </contour>
    <contour>
      <point x="176" y="17"/>
      <point x="139" y="82"/>
      <point x="139" y="145" type="curve" smooth="yes"/>
      <point x="139" y="272"/>
      <point x="240" y="428"/>
      <point x="354" y="428" type="curve" smooth="yes"/>
      <point x="425" y="428"/>
      <point x="461" y="364"/>
      <point x="461" y="300" type="curve" smooth="yes"/>
      <point x="461" y="172"/>
      <point x="366" y="17"/>
      <point x="246" y="17" type="curve" smooth="yes"/>
    </contour>
    <contour>
      <point x="385" y="503" type="move" name="top"/>
    </contour>
  </outline>
</glyph>
<glyph name=".notdef" format="1">
  <advance width="500"/>
  <note>
    .notdef
  </note>
  <outline>
    <contour>
      <point x="461" y="0" type="line"/>
      <point x="461" y="473" type="line"/>
      <point x="61" y="473" type="line"/>
      <point x="61" y="0" type="line"/>
    </contour>
    <contour>
      <point x="111" y="423" type="line"/>
      <point x="411" y="423" type="line"/>
      <point x="411" y="50" type="line"/>
      <point x="111" y="50" type="line"/>
    </contour>
  </outline>
</glyph>
<glyph name="acutecomb.grkstack" format="1">
  <advance width="0"/>
  <note>
    acutecomb.grkstack
  </note>
  <outline>
    <contour>
      <point x="52" y="463"/>
      <point x="57" y="468"/>
      <point x="64" y="475" type="curve" smooth="yes"/>
      <point x="92" y="503"/>
      <point x="178" y="608"/>
      <point x="178" y="613" type="curve" smooth="yes"/>
      <point x="178" y="628"/>
      <point x="148" y="652"/>
      <point x="138" y="652" type="curve" smooth="yes"/>
      <point x="128" y="652"/>
      <point x="120" y="640"/>
      <point x="113" y="627" type="curve" smooth="yes"/>
      <point x="96" y="596"/>
      <point x="51" y="510"/>
      <point x="38" y="483" type="curve" smooth="yes"/>
      <point x="36" y="478"/>
      <point x="33" y="463"/>
      <point x="44" y="463" type="curve" smooth="yes"/>
    </contour>
  </outline>
</glyph>
<glyph name="acutecomb.sc" format="1">
  <advance width="0"/>
  <note>
    acutecomb.sc
  </note>
  <outline>
    <component base="acutecomb" xOffset="1"/>
    <contour>
      <point x="47" y="440" type="move" name="_top"/>
    </contour>
  </outline>
</glyph>
<glyph name="asciicircum.ordn" format="1">
  <advance width="343"/>
  <note>
    asciicircum.ordn
  </note>
  <outline>
    <contour>
      <point x="147" y="450"/>
      <point x="158" y="455"/>
      <point x="164" y="461" type="curve"/>
      <point x="286" y="578" type="line"/>
      <point x="292" y="578" type="line"/>
      <point x="339" y="468" type="line" smooth="yes"/>
      <point x="344" y="455"/>
      <point x="361" y="450"/>
      <point x="369" y="450" type="curve" smooth="yes"/>
      <point x="374" y="450"/>
      <point x="379" y="456"/>
      <point x="377" y="463" type="curve"/>
      <point x="303" y="643" type="line"/>
      <point x="301" y="643" type="line"/>
      <point x="132" y="473" type="line" smooth="yes"/>
      <point x="120" y="461"/>
      <point x="133" y="450"/>
      <point x="138" y="450" type="curve" smooth="yes"/>
    </contour>
  </outline>
</glyph>
<glyph name="gravecomb.grkstack" format="1">
  <advance width="0"/>
  <note>
    gravecomb.grkstack
  </note>
  <outline>
    <contour>
      <point x="121" y="470"/>
      <point x="126" y="488"/>
      <point x="129" y="496" type="curve" smooth="yes"/>
      <point x="133" y="506"/>
      <point x="152" y="586"/>
      <point x="161" y="627" type="curve" smooth="yes"/>
      <point x="166" y="650"/>
      <point x="164" y="667"/>
      <point x="152" y="667" type="curve" smooth="yes"/>
      <point x="136" y="667"/>
      <point x="94" y="635"/>
      <point x="94" y="621" type="curve" smooth="yes"/>
      <point x="94" y="598"/>
      <point x="98" y="530"/>
      <point x="100" y="496" type="curve" smooth="yes"/>
      <point x="101" y="482"/>
      <point x="105" y="470"/>
      <point x="114" y="470" type="curve" smooth="yes"/>
    </contour>
  </outline>
</glyph>
<glyph name="o.ordn" format="1">
  <advance width="304"/>
  <note>
    o.ordn
  </note>
  <outline>
    <contour>
      <point x="285" y="275"/>
      <point x="342" y="361"/>
      <point x="342" y="448" type="curve" smooth="yes"/>
      <point x="342" y="498"/>
      <point x="310" y="531"/>
      <point x="256" y="531" type="curve" smooth="yes"/>
      <point x="149" y="531"/>
      <point x="90" y="443"/>
      <point x="90" y="372" type="curve" smooth="yes"/>
      <point x="90" y="305"/>
      <point x="122" y="275"/>
      <point x="177" y="275" type="curve" smooth="yes"/>
    </contour>
    <contour>
      <point x="157" y="295"/>
      <point x="138" y="329"/>
      <point x="138" y="365" type="curve" smooth="yes"/>
      <point x="138" y="422"/>
      <point x="192" y="509"/>
      <point x="248" y="509" type="curve" smooth="yes"/>
      <point x="280" y="509"/>
      <point x="293" y="478"/>
      <point x="293" y="437" type="curve" smooth="yes"/>
      <point x="293" y="386"/>
      <point x="245" y="295"/>
      <point x="189" y="295" type="curve" smooth="yes"/>
    </contour>
  </outline>
</glyph>
<glyph name="quoteright.01" format="1">
  <advance width="0"/>
  <note>
    quoteright.01
  </note>
  <outline>
    <contour>
      <point x="195" y="458"/>
      <point x="270" y="492"/>
      <point x="270" y="593" type="curve" smooth="yes"/>
      <point x="270" y="649"/>
      <point x="235" y="683"/>
      <point x="187" y="683" type="curve" smooth="yes"/>
      <point x="158" y="683"/>
      <point x="132" y="664"/>
      <point x="132" y="637" type="curve" smooth="yes"/>
      <point x="132" y="615"/>
      <point x="150" y="598"/>
      <point x="179" y="595" type="curve" smooth="yes"/>
      <point x="201" y="593"/>
      <point x="218" y="574"/>
      <point x="218" y="558" type="curve" smooth="yes"/>
      <point x="218" y="506"/>
      <point x="181" y="489"/>
      <point x="138" y="479" type="curve" smooth="yes"/>
      <point x="129" y="477"/>
      <point x="124" y="472"/>
      <point x="124" y="467" type="curve" smooth="yes"/>
      <point x="124" y="460"/>
      <point x="131" y="456"/>
      <point x="144" y="456" type="curve"/>
    </contour>
  </outline>
</glyph>
<glyph name="tildecomb.cap" format="1">
  <advance width="0"/>
  <note>
    tildecomb.cap
  </note>
  <outline>
    <contour>
      <point x="45" y="692"/>
      <point x="52" y="705"/>
      <point x="64" y="715" type="curve" smooth="yes"/>
      <point x="72" y="722"/>
      <point x="87" y="727"/>
      <point x="97" y="727" type="curve" smooth="yes"/>
      <point x="128" y="727"/>
      <point x="212" y="719"/>
      <point x="228" y="719" type="curve" smooth="yes"/>
      <point x="232" y="719"/>
      <point x="249" y="723"/>
      <point x="257" y="733" type="curve" smooth="yes"/>
      <point x="270" y="749"/>
      <point x="288" y="773"/>
      <point x="304" y="789" type="curve" smooth="yes"/>
      <point x="311" y="796"/>
      <point x="318" y="803"/>
      <point x="318" y="807" type="curve" smooth="yes"/>
      <point x="318" y="817"/>
      <point x="309" y="824"/>
      <point x="299" y="824" type="curve" smooth="yes"/>
      <point x="295" y="824"/>
      <point x="288" y="813"/>
      <point x="279" y="804" type="curve" smooth="yes"/>
      <point x="269" y="794"/>
      <point x="255" y="785"/>
      <point x="240" y="785" type="curve" smooth="yes"/>
      <point x="222" y="785"/>
      <point x="198" y="787"/>
      <point x="176" y="789" type="curve" smooth="yes"/>
      <point x="157" y="791"/>
      <point x="130" y="792"/>
      <point x="108" y="792" type="curve" smooth="yes"/>
      <point x="83" y="792"/>
      <point x="26" y="718"/>
      <point x="26" y="708" type="curve" smooth="yes"/>
      <point x="26" y="701"/>
      <point x="35" y="692"/>
      <point x="42" y="692" type="curve" smooth="yes"/>
    </contour>
    <contour>
      <point x="144" y="676" type="move" name="_topstack.cap"/>
    </contour>
    <contour>
      <point x="156" y="675" type="move" name="_top.cap"/>
    </contour>
  </outline>
</glyph>
<glyph name="u1F1F3_u1F1F4" format="1">
  <advance width="1104"/>
  <note>
    u1F1F3_u1F1F4
  </note>
  <outline>
    <contour>
      <point x="517" y="130" type="line"/>
      <point x="516" y="138"/>
      <point x="524" y="144"/>
      <point x="530" y="148" type="curve" smooth="yes"/>
      <point x="533" y="151"/>
      <point x="541" y="151"/>
      <point x="545" y="151" type="curve"/>
      <point x="540" y="154"/>
      <point x="535" y="156"/>
      <point x="530" y="159" type="curve" smooth="yes"/>
      <point x="528" y="160"/>
      <point x="531" y="169"/>
      <point x="531" y="171" type="curve"/>
      <point x="530" y="172"/>
      <point x="521" y="180"/>
      <point x="521" y="180" type="curve" smooth="yes"/>
      <point x="526" y="187"/>
      <point x="540" y="178"/>
      <point x="545" y="174" type="curve" smooth="yes"/>
      <point x="549" y="172"/>
      <point x="551" y="163"/>
      <point x="553" y="159" type="curve" smooth="yes"/>
      <point x="554" y="157"/>
      <point x="561" y="160"/>
      <point x="562" y="161" type="curve"/>
      <point x="563" y="182"/>
      <point x="560" y="205"/>
      <point x="556" y="225" type="curve"/>
      <point x="548" y="237"/>
      <point x="537" y="250"/>
      <point x="527" y="260" type="curve"/>
      <point x="520" y="252"/>
      <point x="516" y="248"/>
      <point x="516" y="236" type="curve" smooth="yes"/>
      <point x="515" y="232"/>
      <point x="499" y="228"/>
      <point x="497" y="228" type="curve" smooth="yes"/>
      <point x="495" y="227"/>
      <point x="488" y="234"/>
      <point x="487" y="235" type="curve"/>
      <point x="471" y="238"/>
      <point x="457" y="242"/>
      <point x="441" y="245" type="curve"/>
      <point x="440" y="245"/>
      <point x="433" y="244"/>
      <point x="432" y="244" type="curve" smooth="yes"/>
      <point x="427" y="250"/>
      <point x="433" y="251"/>
      <point x="436" y="255" type="curve"/>
      <point x="436" y="259"/>
      <point x="434" y="262"/>
      <point x="431" y="266" type="curve"/>
      <point x="428" y="265"/>
      <point x="426" y="263"/>
      <point x="423" y="263" type="curve"/>
      <point x="416" y="263"/>
      <point x="409" y="264"/>
      <point x="403" y="267" type="curve" smooth="yes"/>
      <point x="402" y="268"/>
      <point x="402" y="271"/>
      <point x="402" y="271" type="curve" smooth="yes"/>
      <point x="402" y="273"/>
      <point x="410" y="271"/>
      <point x="411" y="271" type="curve"/>
      <point x="413" y="273"/>
      <point x="412" y="278"/>
      <point x="416" y="279" type="curve" smooth="yes"/>
      <point x="419" y="280"/>
      <point x="423" y="279"/>
      <point x="426" y="279" type="curve"/>
      <point x="429" y="280" type="line"/>
      <point x="424" y="283"/>
      <point x="419" y="284"/>
      <point x="414" y="286" type="curve" smooth="yes"/>
      <point x="412" y="287"/>
      <point x="415" y="294"/>
      <point x="416" y="295" type="curve"/>
      <point x="415" y="296"/>
      <point x="413" y="297"/>
      <point x="411" y="299" type="curve"/>
      <point x="404" y="300" type="line" smooth="yes"/>
      <point x="403" y="301"/>
      <point x="406" y="304"/>
      <point x="407" y="304" type="curve" smooth="yes"/>
      <point x="420" y="304" type="line" smooth="yes"/>
      <point x="423" y="304"/>
      <point x="428" y="300"/>
      <point x="431" y="298" type="curve" smooth="yes"/>
      <point x="434" y="295"/>
      <point x="437" y="289"/>
      <point x="439" y="286" type="curve"/>
      <point x="440" y="290"/>
      <point x="440" y="295"/>
      <point x="441" y="299" type="curve" smooth="yes"/>
      <point x="441" y="301"/>
      <point x="448" y="301"/>
      <point x="449" y="302" type="curve"/>
      <point x="450" y="303"/>
      <point x="451" y="314"/>
      <point x="451" y="314" type="curve"/>
      <point x="460" y="312"/>
      <point x="459" y="295"/>
      <point x="456" y="287" type="curve"/>
      <point x="454" y="283"/>
      <point x="451" y="280"/>
      <point x="448" y="276" type="curve"/>
      <point x="449" y="272"/>
      <point x="450" y="268"/>
      <point x="451" y="264" type="curve"/>
      <point x="455" y="264"/>
      <point x="459" y="264"/>
      <point x="463" y="263" type="curve"/>
      <point x="489" y="261" type="line"/>
      <point x="488" y="264"/>
      <point x="486" y="267"/>
      <point x="486" y="270" type="curve"/>
      <point x="488" y="288"/>
      <point x="491" y="304"/>
      <point x="496" y="319" type="curve" smooth="yes"/>
      <point x="496" y="320"/>
      <point x="497" y="320"/>
      <point x="497" y="320" type="curve" smooth="yes"/>
      <point x="508" y="328"/>
      <point x="520" y="332"/>
      <point x="532" y="337" type="curve"/>
      <point x="532" y="346"/>
      <point x="529" y="354"/>
      <point x="527" y="362" type="curve"/>
      <point x="524" y="368"/>
      <point x="518" y="373"/>
      <point x="513" y="379" type="curve" smooth="yes"/>
      <point x="511" y="381"/>
      <point x="510" y="387"/>
      <point x="508" y="390" type="curve"/>
      <point x="494" y="375"/>
      <point x="479" y="359"/>
      <point x="467" y="342" type="curve" smooth="yes"/>
      <point x="466" y="341"/>
      <point x="462" y="344"/>
      <point x="463" y="345" type="curve" smooth="yes"/>
      <point x="465" y="354"/>
      <point x="458" y="355"/>
      <point x="452" y="357" type="curve"/>
      <point x="448" y="351"/>
      <point x="444" y="346"/>
      <point x="439" y="342" type="curve" smooth="yes"/>
      <point x="438" y="341"/>
      <point x="435" y="342"/>
      <point x="434" y="342" type="curve"/>
      <point x="433" y="314" type="line"/>
      <point x="433" y="314"/>
      <point x="433" y="313"/>
      <point x="432" y="314" type="curve"/>
      <point x="431" y="314"/>
      <point x="420" y="313"/>
      <point x="420" y="314" type="curve" smooth="yes"/>
      <point x="420" y="323"/>
      <point x="421" y="331"/>
      <point x="421" y="340" type="curve"/>
      <point x="419" y="338"/>
      <point x="415" y="335"/>
      <point x="414" y="335" type="curve"/>
      <point x="413" y="336"/>
      <point x="413" y="338"/>
      <point x="413" y="339" type="curve" smooth="yes"/>
      <point x="412" y="344"/>
      <point x="418" y="350"/>
      <point x="421" y="354" type="curve"/>
      <point x="421" y="359"/>
      <point x="421" y="363"/>
      <point x="421" y="368" type="curve"/>
      <point x="421" y="368"/>
      <point x="418" y="368"/>
      <point x="418" y="369" type="curve" smooth="yes"/>
      <point x="414" y="378" type="line"/>
      <point x="413" y="380"/>
      <point x="403" y="377"/>
      <point x="403" y="378" type="curve" smooth="yes"/>
      <point x="404" y="387"/>
      <point x="414" y="388"/>
      <point x="422" y="388" type="curve"/>
      <point x="422" y="414" type="line" smooth="yes"/>
      <point x="422" y="422"/>
      <point x="422" y="431"/>
      <point x="423" y="439" type="curve" smooth="yes"/>
      <point x="423" y="466" type="line"/>
      <point x="418" y="464"/>
      <point x="416" y="464"/>
      <point x="412" y="467" type="curve"/>
      <point x="409" y="467"/>
      <point x="408" y="465"/>
      <point x="406" y="463" type="curve"/>
      <point x="405" y="462"/>
      <point x="405" y="460"/>
      <point x="403" y="460" type="curve"/>
      <point x="400" y="467"/>
      <point x="405" y="475"/>
      <point x="410" y="480" type="curve" smooth="yes"/>
      <point x="413" y="484"/>
      <point x="419" y="486"/>
      <point x="423" y="487" type="curve"/>
      <point x="423" y="488"/>
      <point x="423" y="489"/>
      <point x="423" y="490" type="curve"/>
      <point x="419" y="491"/>
      <point x="414" y="490"/>
      <point x="411" y="493" type="curve" smooth="yes"/>
      <point x="410" y="494"/>
      <point x="409" y="499"/>
      <point x="408" y="501" type="curve"/>
      <point x="406" y="502"/>
      <point x="397" y="503"/>
      <point x="397" y="503" type="curve"/>
      <point x="400" y="512"/>
      <point x="415" y="512"/>
      <point x="424" y="509" type="curve"/>
      <point x="424" y="524" type="line"/>
      <point x="424" y="530" type="line"/>
      <point x="401" y="532"/>
      <point x="391" y="516"/>
      <point x="380" y="503" type="curve" smooth="yes"/>
      <point x="380" y="503"/>
      <point x="379" y="503"/>
      <point x="379" y="503" type="curve"/>
      <point x="367" y="522"/>
      <point x="360" y="543"/>
      <point x="360" y="571" type="curve" smooth="yes"/>
      <point x="360" y="573"/>
      <point x="360" y="584"/>
      <point x="362" y="583" type="curve" smooth="yes"/>
      <point x="380" y="569"/>
      <point x="399" y="553"/>
      <point x="423" y="554" type="curve"/>
      <point x="424" y="554"/>
      <point x="425" y="554"/>
      <point x="425" y="554" type="curve"/>
      <point x="425" y="562" type="line" smooth="yes"/>
      <point x="425" y="563"/>
      <point x="438" y="563"/>
      <point x="438" y="563" type="curve"/>
      <point x="439" y="563"/>
      <point x="438" y="555"/>
      <point x="438" y="554" type="curve"/>
      <point x="442" y="553" type="line" smooth="yes"/>
      <point x="444" y="553"/>
      <point x="443" y="533"/>
      <point x="443" y="531" type="curve" smooth="yes"/>
      <point x="443" y="530"/>
      <point x="438" y="530"/>
      <point x="438" y="530" type="curve"/>
      <point x="437" y="521"/>
      <point x="437" y="514"/>
      <point x="437" y="506" type="curve"/>
      <point x="438" y="508"/>
      <point x="439" y="511"/>
      <point x="440" y="513" type="curve" smooth="yes"/>
      <point x="441" y="515"/>
      <point x="446" y="515"/>
      <point x="448" y="516" type="curve"/>
      <point x="450" y="520"/>
      <point x="451" y="522"/>
      <point x="451" y="527" type="curve" smooth="yes"/>
      <point x="451" y="529"/>
      <point x="455" y="525"/>
      <point x="455" y="525" type="curve" smooth="yes"/>
      <point x="459" y="522"/>
      <point x="456" y="509"/>
      <point x="456" y="505" type="curve" smooth="yes"/>
      <point x="455" y="501"/>
      <point x="449" y="496"/>
      <point x="447" y="493" type="curve"/>
      <point x="449" y="491"/>
      <point x="453" y="489"/>
      <point x="456" y="490" type="curve"/>
      <point x="456" y="490" type="line"/>
      <point x="460" y="489"/>
      <point x="461" y="488"/>
      <point x="461" y="485" type="curve"/>
      <point x="472" y="479"/>
      <point x="483" y="474"/>
      <point x="493" y="469" type="curve"/>
      <point x="504" y="484"/>
      <point x="519" y="493"/>
      <point x="533" y="503" type="curve"/>
      <point x="540" y="506"/>
      <point x="547" y="509"/>
      <point x="554" y="510" type="curve" smooth="yes"/>
      <point x="568" y="513" type="line"/>
      <point x="568" y="513"/>
      <point x="568" y="514"/>
      <point x="569" y="515" type="curve"/>
      <point x="566" y="515"/>
      <point x="547" y="515"/>
      <point x="547" y="517" type="curve"/>
      <point x="549" y="520"/>
      <point x="551" y="524"/>
      <point x="553" y="528" type="curve"/>
      <point x="551" y="530"/>
      <point x="547" y="534"/>
      <point x="546" y="537" type="curve" smooth="yes"/>
      <point x="546" y="548" type="line" smooth="yes"/>
      <point x="545" y="551"/>
      <point x="558" y="559"/>
      <point x="560" y="561" type="curve"/>
      <point x="560" y="569"/>
      <point x="559" y="576"/>
      <point x="559" y="584" type="curve" smooth="yes"/>
      <point x="559" y="586"/>
      <point x="566" y="582"/>
      <point x="567" y="581" type="curve"/>
      <point x="567" y="581"/>
      <point x="575" y="583"/>
      <point x="577" y="578" type="curve" smooth="yes"/>
      <point x="578" y="575"/>
      <point x="576" y="569"/>
      <point x="571" y="569" type="curve"/>
      <point x="571" y="566"/>
      <point x="578" y="565"/>
      <point x="582" y="565" type="curve"/>
      <point x="583" y="565"/>
      <point x="583" y="565"/>
      <point x="584" y="566" type="curve"/>
      <point x="581" y="569"/>
      <point x="578" y="572"/>
      <point x="582" y="577" type="curve" smooth="yes"/>
      <point x="584" y="579"/>
      <point x="587" y="578"/>
      <point x="589" y="578" type="curve"/>
      <point x="590" y="579"/>
      <point x="592" y="580"/>
      <point x="594" y="580" type="curve" smooth="yes"/>
      <point x="599" y="580"/>
      <point x="601" y="575"/>
      <point x="602" y="575" type="curve" smooth="yes"/>
      <point x="608" y="573"/>
      <point x="609" y="564"/>
      <point x="603" y="563" type="curve"/>
      <point x="601" y="562"/>
      <point x="600" y="563"/>
      <point x="600" y="563" type="curve"/>
      <point x="599" y="560"/>
      <point x="611" y="557"/>
      <point x="612" y="559" type="curve"/>
      <point x="609" y="562"/>
      <point x="609" y="565"/>
      <point x="611" y="568" type="curve" smooth="yes"/>
      <point x="613" y="574"/>
      <point x="618" y="571"/>
      <point x="621" y="568" type="curve"/>
      <point x="624" y="570"/>
      <point x="628" y="570"/>
      <point x="631" y="568" type="curve" smooth="yes"/>
      <point x="633" y="568"/>
      <point x="619" y="550"/>
      <point x="618" y="549" type="curve"/>
      <point x="620" y="548"/>
      <point x="625" y="546"/>
      <point x="625" y="544" type="curve" smooth="yes"/>
      <point x="624" y="536"/>
      <point x="622" y="533"/>
      <point x="617" y="528" type="curve"/>
      <point x="617" y="508"/>
      <point x="612" y="490"/>
      <point x="603" y="473" type="curve" smooth="yes"/>
      <point x="590" y="449" type="line" smooth="yes"/>
      <point x="587" y="444"/>
      <point x="586" y="438"/>
      <point x="586" y="432" type="curve" smooth="yes"/>
      <point x="586" y="430"/>
      <point x="581" y="433"/>
      <point x="580" y="434" type="curve"/>
      <point x="580" y="427"/>
      <point x="580" y="421"/>
      <point x="580" y="414" type="curve" smooth="yes"/>
      <point x="579" y="386" type="line" smooth="yes"/>
      <point x="579" y="374"/>
      <point x="579" y="363"/>
      <point x="578" y="351" type="curve"/>
      <point x="584" y="345"/>
      <point x="587" y="339"/>
      <point x="590" y="333" type="curve" smooth="yes"/>
      <point x="601" y="308" type="line" smooth="yes"/>
      <point x="611" y="287"/>
      <point x="621" y="250"/>
      <point x="652" y="249" type="curve"/>
      <point x="663" y="250"/>
      <point x="673" y="256"/>
      <point x="678" y="266" type="curve"/>
      <point x="685" y="281"/>
      <point x="675" y="295"/>
      <point x="668" y="308" type="curve"/>
      <point x="649" y="341" type="line"/>
      <point x="639" y="359"/>
      <point x="627" y="384"/>
      <point x="639" y="405" type="curve" smooth="yes"/>
      <point x="646" y="417"/>
      <point x="657" y="425"/>
      <point x="667" y="433" type="curve" smooth="yes"/>
      <point x="706" y="463" type="line" smooth="yes"/>
      <point x="720" y="475"/>
      <point x="733" y="489"/>
      <point x="733" y="508" type="curve" smooth="yes"/>
      <point x="732" y="517"/>
      <point x="731" y="526"/>
      <point x="725" y="532" type="curve" smooth="yes"/>
      <point x="714" y="544"/>
      <point x="685" y="546"/>
      <point x="682" y="524" type="curve"/>
      <point x="682" y="523"/>
      <point x="682" y="520"/>
      <point x="682" y="519" type="curve"/>
      <point x="686" y="518"/>
      <point x="691" y="518"/>
      <point x="694" y="516" type="curve" smooth="yes"/>
      <point x="698" y="514"/>
      <point x="704" y="501"/>
      <point x="704" y="497" type="curve" smooth="yes"/>
      <point x="704" y="487"/>
      <point x="702" y="477"/>
      <point x="699" y="467" type="curve" smooth="yes"/>
      <point x="699" y="467"/>
      <point x="695" y="466"/>
      <point x="695" y="467" type="curve" smooth="yes"/>
      <point x="693" y="476"/>
      <point x="694" y="483"/>
      <point x="689" y="489" type="curve"/>
      <point x="690" y="484"/>
      <point x="690" y="479"/>
      <point x="688" y="474" type="curve"/>
      <point x="673" y="455"/>
      <point x="647" y="447"/>
      <point x="634" y="426" type="curve" smooth="yes"/>
      <point x="633" y="426"/>
      <point x="631" y="426"/>
      <point x="630" y="426" type="curve" smooth="yes"/>
      <point x="627" y="426"/>
      <point x="637" y="447"/>
      <point x="638" y="449" type="curve"/>
      <point x="646" y="461"/>
      <point x="655" y="473"/>
      <point x="664" y="484" type="curve"/>
      <point x="664" y="486"/>
      <point x="663" y="488"/>
      <point x="663" y="489" type="curve"/>
      <point x="658" y="488"/>
      <point x="652" y="480"/>
      <point x="649" y="475" type="curve" smooth="yes"/>
      <point x="648" y="475"/>
      <point x="645" y="475"/>
      <point x="645" y="476" type="curve" smooth="yes"/>
      <point x="649" y="490"/>
      <point x="655" y="502"/>
      <point x="663" y="512" type="curve"/>
      <point x="661" y="540"/>
      <point x="683" y="556"/>
      <point x="707" y="555" type="curve"/>
      <point x="731" y="553"/>
      <point x="747" y="535"/>
      <point x="747" y="507" type="curve" smooth="yes"/>
      <point x="747" y="484"/>
      <point x="737" y="469"/>
      <point x="724" y="455" type="curve"/>
      <point x="724" y="454" type="line"/>
      <point x="715" y="444"/>
      <point x="702" y="434"/>
      <point x="695" y="423" type="curve"/>
      <point x="700" y="423" type="line"/>
      <point x="700" y="423" type="line"/>
      <point x="706" y="423"/>
      <point x="712" y="421"/>
      <point x="718" y="420" type="curve"/>
      <point x="722" y="421"/>
      <point x="725" y="421"/>
      <point x="729" y="421" type="curve" smooth="yes"/>
      <point x="730" y="421"/>
      <point x="730" y="418"/>
      <point x="730" y="418" type="curve" smooth="yes"/>
      <point x="698" y="403" type="line" smooth="yes"/>
      <point x="693" y="401"/>
      <point x="681" y="397"/>
      <point x="679" y="392" type="curve"/>
      <point x="683" y="393"/>
      <point x="689" y="395"/>
      <point x="693" y="395" type="curve" smooth="yes"/>
      <point x="711" y="391" type="line"/>
      <point x="719" y="392" type="line" smooth="yes"/>
      <point x="720" y="392"/>
      <point x="721" y="389"/>
      <point x="721" y="388" type="curve" smooth="yes"/>
      <point x="707" y="380"/>
      <point x="691" y="373"/>
      <point x="677" y="367" type="curve"/>
      <point x="677" y="367"/>
      <point x="677" y="366"/>
      <point x="677" y="365" type="curve"/>
      <point x="679" y="365"/>
      <point x="682" y="366"/>
      <point x="683" y="366" type="curve" smooth="yes"/>
      <point x="700" y="362" type="line"/>
      <point x="708" y="363" type="line" smooth="yes"/>
      <point x="709" y="363"/>
      <point x="710" y="360"/>
      <point x="710" y="359" type="curve" smooth="yes"/>
      <point x="680" y="345" type="line"/>
      <point x="683" y="320"/>
      <point x="707" y="287"/>
      <point x="690" y="257" type="curve" smooth="yes"/>
      <point x="681" y="242"/>
      <point x="664" y="234"/>
      <point x="646" y="234" type="curve"/>
      <point x="629" y="235"/>
      <point x="615" y="245"/>
      <point x="605" y="259" type="curve" smooth="yes"/>
      <point x="584" y="289" type="line"/>
      <point x="585" y="270"/>
      <point x="584" y="250"/>
      <point x="589" y="235" type="curve"/>
      <point x="594" y="229" type="line" smooth="yes"/>
      <point x="597" y="225"/>
      <point x="593" y="213"/>
      <point x="592" y="210" type="curve"/>
      <point x="591" y="208"/>
      <point x="589" y="207"/>
      <point x="589" y="205" type="curve"/>
      <point x="587" y="186"/>
      <point x="580" y="161"/>
      <point x="586" y="142" type="curve" smooth="yes"/>
      <point x="586" y="141"/>
      <point x="583" y="139"/>
      <point x="583" y="139" type="curve" smooth="yes"/>
      <point x="580" y="137"/>
      <point x="574" y="146"/>
      <point x="569" y="145" type="curve"/>
      <point x="567" y="143"/>
      <point x="564" y="142"/>
      <point x="563" y="139" type="curve"/>
      <point x="564" y="135"/>
      <point x="565" y="132"/>
      <point x="566" y="128" type="curve" smooth="yes"/>
      <point x="567" y="125"/>
      <point x="559" y="121"/>
      <point x="558" y="121" type="curve"/>
      <point x="558" y="119"/>
      <point x="559" y="107"/>
      <point x="559" y="107" type="curve"/>
      <point x="551" y="107"/>
      <point x="546" y="122"/>
      <point x="546" y="128" type="curve"/>
      <point x="546" y="132"/>
      <point x="547" y="136"/>
      <point x="548" y="140" type="curve"/>
      <point x="545" y="136"/>
      <point x="541" y="133"/>
      <point x="538" y="130" type="curve" smooth="yes"/>
      <point x="536" y="128"/>
      <point x="530" y="133"/>
      <point x="529" y="135" type="curve"/>
      <point x="525" y="134"/>
      <point x="521" y="133"/>
      <point x="518" y="130" type="curve" smooth="yes"/>
      <point x="518" y="130"/>
      <point x="518" y="130"/>
      <point x="518" y="130" type="curve"/>
    </contour>
    <contour>
      <point x="531" y="534" type="line"/>
      <point x="529" y="534"/>
      <point x="523" y="537"/>
      <point x="522" y="537" type="curve"/>
      <point x="519" y="534"/>
      <point x="527" y="531"/>
      <point x="528" y="531" type="curve"/>
      <point x="544" y="530" type="line"/>
      <point x="546" y="529"/>
      <point x="548" y="529"/>
      <point x="550" y="529" type="curve"/>
      <point x="548" y="532" type="line"/>
    </contour>
    <contour>
      <point x="548" y="532" type="line" smooth="yes"/>
      <point x="549" y="532"/>
      <point x="550" y="530"/>
      <point x="550" y="529" type="curve" smooth="yes"/>
      <point x="551" y="528"/>
      <point x="544" y="529"/>
      <point x="544" y="529" type="curve"/>
      <point x="528" y="531" type="line" smooth="yes"/>
      <point x="527" y="531"/>
      <point x="518" y="534"/>
      <point x="522" y="537" type="curve"/>
      <point x="523" y="538"/>
      <point x="530" y="534"/>
      <point x="531" y="534" type="curve"/>
    </contour>
    <contour>
      <point x="115" y="29" type="line"/>
      <point x="989" y="29" type="line"/>
      <point x="989" y="664" type="line"/>
      <point x="115" y="664" type="line"/>
    </contour>
  </outline>
</glyph>
<glyph name="uni0302.cap" format="1">
  <advance width="0"/>
  <note>
    uni0302.cap
  </note>
  <outline>
    <contour>
      <point x="35" y="696"/>
      <point x="135" y="737"/>
      <point x="160" y="751" type="curve" smooth="yes"/>
      <point x="171" y="757"/>
      <point x="178" y="756"/>
      <point x="186" y="750" type="curve" smooth="yes"/>
      <point x="209" y="733"/>
      <point x="271" y="695"/>
      <point x="284" y="695" type="curve" smooth="yes"/>
      <point x="293" y="695"/>
      <point x="298" y="700"/>
      <point x="298" y="706" type="curve" smooth="yes"/>
      <point x="298" y="710"/>
      <point x="296" y="713"/>
      <point x="292" y="718" type="curve"/>
      <point x="220" y="800" type="line" smooth="yes"/>
      <point x="210" y="811"/>
      <point x="196" y="822"/>
      <point x="183" y="822" type="curve" smooth="yes"/>
      <point x="173" y="822"/>
      <point x="163" y="816"/>
      <point x="138" y="800" type="curve" smooth="yes"/>
      <point x="14" y="718" type="line"/>
      <point x="9" y="714"/>
      <point x="7" y="710"/>
      <point x="7" y="706" type="curve" smooth="yes"/>
      <point x="7" y="700"/>
      <point x="13" y="696"/>
      <point x="22" y="696" type="curve" smooth="yes"/>
    </contour>
    <contour>
      <point x="146" y="675" type="move" name="_top.cap"/>
    </contour>
  </outline>
</glyph>
<glyph name="uni0306.cap" format="1">
  <advance width="0"/>
  <note>
    uni0306.cap
  </note>
  <outline>
    <contour>
      <point x="278" y="706"/>
      <point x="310" y="779"/>
      <point x="309" y="800" type="curve" smooth="yes"/>
      <point x="308" y="815"/>
      <point x="303" y="820"/>
      <point x="297" y="820" type="curve" smooth="yes"/>
      <point x="286" y="820"/>
      <point x="282" y="814"/>
      <point x="275" y="803" type="curve" smooth="yes"/>
      <point x="250" y="763"/>
      <point x="210" y="758"/>
      <point x="174" y="758" type="curve" smooth="yes"/>
      <point x="132" y="758"/>
      <point x="101" y="773"/>
      <point x="95" y="799" type="curve" smooth="yes"/>
      <point x="93" y="807"/>
      <point x="92" y="820"/>
      <point x="83" y="820" type="curve" smooth="yes"/>
      <point x="67" y="820"/>
      <point x="62" y="801"/>
      <point x="62" y="782" type="curve" smooth="yes"/>
      <point x="63" y="745"/>
      <point x="88" y="706"/>
      <point x="174" y="706" type="curve" smooth="yes"/>
    </contour>
    <contour>
      <point x="188" y="815" type="move" name="top.cap"/>
    </contour>
    <contour>
      <point x="155" y="675" type="move" name="_top.cap"/>
    </contour>
  </outline>
</glyph>
<glyph name="uni0306.cyrcap" format="1">
  <advance width="0"/>
  <note>
    uni0306.cyrcap
  </note>
  <outline>
    <contour>
      <point x="264" y="692"/>
      <point x="341" y="779"/>
      <point x="341" y="836" type="curve" smooth="yes"/>
      <point x="341" y="844"/>
      <point x="340" y="846"/>
      <point x="336" y="846" type="curve" smooth="yes"/>
      <point x="331" y="846"/>
      <point x="329" y="844"/>
      <point x="325" y="836" type="curve" smooth="yes"/>
      <point x="296" y="778"/>
      <point x="251" y="734"/>
      <point x="169" y="734" type="curve" smooth="yes"/>
      <point x="128" y="734"/>
      <point x="117" y="752"/>
      <point x="117" y="771" type="curve" smooth="yes"/>
      <point x="117" y="793"/>
      <point x="139" y="802"/>
      <point x="139" y="831" type="curve" smooth="yes"/>
      <point x="139" y="848"/>
      <point x="124" y="860"/>
      <point x="102" y="860" type="curve" smooth="yes"/>
      <point x="64" y="860"/>
      <point x="38" y="819"/>
      <point x="38" y="786" type="curve" smooth="yes"/>
      <point x="38" y="736"/>
      <point x="77" y="692"/>
      <point x="169" y="692" type="curve" smooth="yes"/>
    </contour>
    <contour>
      <point x="161" y="675" type="move" name="_top.cap"/>
    </contour>
  </outline>
</glyph>
<glyph name="uni0306.sc" format="1">
  <advance width="0"/>
  <note>
    uni0306.sc
  </note>
  <outline>
    <component base="breve" xOffset="-156" yOffset="-16"/>
    <contour>
      <point x="64" y="419" type="move" name="_top"/>
    </contour>
  </outline>
</glyph>
<glyph name="uni030A.cap" format="1">
  <advance width="0"/>
  <note>
    uni030A.cap
  </note>
  <outline>
    <contour>
      <point x="215" y="700"/>
      <point x="261" y="734"/>
      <point x="261" y="786" type="curve" smooth="yes"/>
      <point x="261" y="822"/>
      <point x="225" y="844"/>
      <point x="191" y="844" type="curve" smooth="yes"/>
      <point x="139" y="844"/>
      <point x="93" y="806"/>
      <point x="93" y="754" type="curve" smooth="yes"/>
      <point x="93" y="720"/>
      <point x="129" y="700"/>
      <point x="163" y="700" type="curve" smooth="yes"/>
    </contour>
    <contour>
      <point x="152" y="722"/>
      <point x="135" y="738"/>
      <point x="135" y="758" type="curve" smooth="yes"/>
      <point x="135" y="794"/>
      <point x="153" y="821"/>
      <point x="184" y="821" type="curve" smooth="yes"/>
      <point x="203" y="821"/>
      <point x="219" y="804"/>
      <point x="219" y="783" type="curve" smooth="yes"/>
      <point x="219" y="748"/>
      <point x="203" y="722"/>
      <point x="172" y="722" type="curve" smooth="yes"/>
    </contour>
    <contour>
      <point x="150" y="675" type="move" name="_top.cap"/>
    </contour>
  </outline>
</glyph>
<glyph name="uni030B.cap" format="1">
  <advance width="0"/>
  <note>
    uni030B.cap
  </note>
  <outline>
    <component base="acutecomb.cap" xOffset="66"/>
    <component base="acutecomb.cap" xOffset="-66"/>
    <contour>
      <point x="143" y="675" type="move" name="_top.cap"/>
    </contour>
  </outline>
</glyph>
<glyph name="uni0311.cap" format="1">
  <advance width="0"/>
  <note>
    uni0311.cap
  </note>
  <outline>
    <component base="uni0306.cap" xOffset="349" yOffset="1525" xScale="-1" yScale="-1"/>
    <contour>
      <point x="142" y="675" type="move" name="_top.cap"/>
    </contour>
  </outline>
</glyph>
<glyph name="uni0325.cap" format="1">
  <advance width="0"/>
  <note>
    uni0325.cap
  </note>
  <outline>
    <component base="uni030A.cap" xOffset="-283" yOffset="-912"/>
    <contour>
      <point x="-71" y="-30" type="move" name="_bottom.cap"/>
    </contour>
  </outline>
</glyph>
<glyph name="uni0448.SRB" format="1">
  <advance width="701"/>
  <note>
    uni0448.SRB
  </note>
  <outline>
    <contour>
      <point x="442" y="-138" type="line" smooth="yes"/>
      <point x="455" y="-138"/>
      <point x="478" y="-121"/>
      <point x="478" y="-104" type="curve" smooth="yes"/>
      <point x="478" y="-99"/>
      <point x="474" y="-94"/>
      <point x="469" y="-94" type="curve" smooth="yes"/>
      <point x="82" y="-94" type="line" smooth="yes"/>
      <point x="66" y="-94"/>
      <point x="53" y="-118"/>
      <point x="53" y="-129" type="curve" smooth="yes"/>
      <point x="53" y="-134"/>
      <point x="57" y="-138"/>
      <point x="62" y="-138" type="curve" smooth="yes"/>
    </contour>
    <component base="uni0448"/>
  </outline>
</glyph>
<glyph name="zero.sc" format="1">
  <advance width="411"/>
  <note>
    zero.sc
  </note>
  <outline>
    <contour>
      <point x="298" y="-14"/>
      <point x="396" y="181"/>
      <point x="396" y="313" type="curve" smooth="yes"/>
      <point x="396" y="393"/>
      <point x="352" y="456"/>
      <point x="274" y="456" type="curve" smooth="yes"/>
      <point x="126" y="456"/>
      <point x="21" y="247"/>
      <point x="27" y="110" type="curve" smooth="yes"/>
      <point x="31" y="46"/>
      <point x="80" y="-14"/>
      <point x="134" y="-14" type="curve" smooth="yes"/>
    </contour>
    <contour>
      <point x="113" y="19"/>
      <point x="94" y="41"/>
      <point x="94" y="95" type="curve" smooth="yes"/>
      <point x="94" y="239"/>
      <point x="196" y="423"/>
      <point x="279" y="423" type="curve" smooth="yes"/>
      <point x="318" y="423"/>
      <point x="329" y="394"/>
      <point x="329" y="353" type="curve" smooth="yes"/>
      <point x="329" y="228"/>
      <point x="231" y="19"/>
      <point x="144" y="19" type="curve" smooth="yes"/>
    </contour>
  </outline>
</glyph>
